<?xml version="1.0" encoding="UTF-8"?>
<svg width="32px" height="32px" viewBox="0 0 32 32" version="1.1" xmlns="http://www.w3.org/2000/svg" xmlns:xlink="http://www.w3.org/1999/xlink">
    <!-- Generator: Sketch 59 (86127) - https://sketch.com -->
    <title>Artboard Copy 17@2x</title>
    <desc>Created with Sketch.</desc>
    <g id="Artboard-Copy-17" stroke="none" stroke-width="1" fill="none" fill-rule="evenodd">
        <g id="Group-2" transform="translate(6.000000, 1.000000)">
            <path d="M0.760845625,4.73863576 L18.7608456,0.305205786 C19.2971039,0.173124472 19.8389002,0.500774662 19.9709816,1.03703297 C19.9902565,1.11529043 20,1.19559111 20,1.27618734 L20,17.2569798 C20,17.7351085 19.6615412,18.1463449 19.19234,18.2383081 L1.19234001,21.7663018 C0.650367329,21.8725282 0.124898109,21.5192861 0.0186716548,20.9773134 C0.00625307392,20.9139532 -6.58226788e-16,20.8495392 0,20.7849734 L0,5.70961732 C1.6569042e-16,5.24945048 0.314032111,4.84868668 0.760845625,4.73863576 Z" id="Rectangle" fill="#8F67FC"></path>
            <path d="M1.52367358,4.84864864 L11.5236736,10.9956365 C11.8196625,11.1775805 12,11.5001177 12,11.8475555 L12,28.9026609 C12,29.4549457 11.5522847,29.9026609 11,29.9026609 C10.7707903,29.9026609 10.5485374,29.8239202 10.3704506,29.6796214 L0.370450556,21.5768992 C0.13611988,21.3870276 1.82124678e-12,21.101538 1.8189894e-12,20.7999388 L1.8189894e-12,5.70056764 C1.81936586e-12,5.14828289 0.44771525,4.70056764 1,4.70056764 C1.18489072,4.70056764 1.36616166,4.75182625 1.52367358,4.84864864 Z" id="Rectangle-Copy" fill="#0BE6FF"></path>
        </g>
    </g>
</svg>