<svg xmlns="http://www.w3.org/2000/svg" xmlns:xlink="http://www.w3.org/1999/xlink" viewBox="0 0 102 105"><defs><style>.cls-1{fill:none;}.cls-2{isolation:isolate;}.cls-3{fill:#31287c;}.cls-4{fill:#fff;}.cls-5{clip-path:url(#clip-path);}.cls-6{mix-blend-mode:multiply;}.cls-7{fill:#126eb2;}.cls-8{fill:#f9b424;}.cls-9{fill:#b8d4d6;}.cls-10{fill:#2baeb3;}.cls-11{opacity:0.5;mix-blend-mode:screen;}.cls-12{mix-blend-mode:overlay;}.cls-13{fill:#ababab;}</style><clipPath id="clip-path" transform="translate(0.5 1.54)"><path class="cls-1" d="M64.33,30.47a5.48,5.48,0,0,0-2.72-4,5.56,5.56,0,0,0-3.33-.58,5.66,5.66,0,0,0-.59-3.34,5.51,5.51,0,0,0-4-2.72,11.87,11.87,0,0,0-4.09.09,11.87,11.87,0,0,0-4.09-.09,5.51,5.51,0,0,0-4,2.72A5.58,5.58,0,0,0,41,25.93a5.55,5.55,0,0,0-3.33.58,5.48,5.48,0,0,0-2.72,4A11.63,11.63,0,0,0,35,34.56,11.63,11.63,0,0,0,35,38.65a5.46,5.46,0,0,0,2.72,4,5.35,5.35,0,0,0,2.58.63c.25,0,.5,0,.75,0a5.59,5.59,0,0,0,.59,3.34,5.47,5.47,0,0,0,4,2.71,8.39,8.39,0,0,0,1.63.14,14.92,14.92,0,0,0,2.46-.23,14.92,14.92,0,0,0,2.46.23,8.46,8.46,0,0,0,1.63-.14,5.47,5.47,0,0,0,4-2.71,5.67,5.67,0,0,0,.59-3.34c.25,0,.5,0,.74,0a5.39,5.39,0,0,0,2.59-.63,5.46,5.46,0,0,0,2.72-4,11.87,11.87,0,0,0-.09-4.09A11.87,11.87,0,0,0,64.33,30.47Zm-21.55,5c-.52.33-1,.57-1.3.75,0-.27.09-.59.16-1a3.17,3.17,0,0,0,.07-.69,3.08,3.08,0,0,0-.07-.68c-.07-.37-.13-.68-.16-1a11.9,11.9,0,0,1,1.3.75c.4.26.82.56,1.25.88C43.6,34.89,43.18,35.18,42.78,35.45Zm6.14-8.9a1.78,1.78,0,0,0,.39.07h.33a3.25,3.25,0,0,0,.69-.08l.94-.16a11,11,0,0,1-.75,1.3c-.26.41-.56.82-.88,1.25-.33-.43-.62-.84-.89-1.25A14.86,14.86,0,0,1,48,26.4Zm1.4,16a3.34,3.34,0,0,0-1.36,0,9.54,9.54,0,0,1-1,.16c.18-.35.42-.78.75-1.3s.56-.82.89-1.25c.32.43.62.85.88,1.25a11.9,11.9,0,0,1,.75,1.3C51,42.69,50.69,42.64,50.32,42.56Zm7.32-7.31c.07.36.12.68.16,1-.35-.18-.78-.42-1.3-.75s-.82-.56-1.25-.89c.43-.32.84-.62,1.25-.88a11.9,11.9,0,0,1,1.3-.75c0,.27-.09.58-.16,1a3.08,3.08,0,0,0-.07.68A3.17,3.17,0,0,0,57.64,35.25Z"/></clipPath></defs><title>depotuur</title><g class="cls-2"><g id="Layer_1" data-name="Layer 1"><rect class="cls-3" width="102" height="105"/><path class="cls-4" d="M8.8,69.21c-1.29,0-2.41-.06-3.46-.09V56.72c1,0,2.48-.09,4-.09,3.85,0,6.3,1.71,6.3,6.08S12.85,69.21,8.8,69.21Zm.39-10.57c-.56,0-1.07,0-1.46,0v8.38A8.15,8.15,0,0,0,9,67.16c2.34,0,4-1.32,4-4.27C13.07,60.22,12,58.64,9.19,58.64Z" transform="translate(0.5 1.54)"/><path class="cls-4" d="M25,65H19.35c0,1.62.76,2.47,2.53,2.47a7.21,7.21,0,0,0,2.65-.54l.26,1.79a9.91,9.91,0,0,1-3.32.59c-2.89,0-4.51-1.46-4.51-4.68,0-2.74,1.62-4.84,4.35-4.84s3.79,1.71,3.79,3.88A8.92,8.92,0,0,1,25,65Zm-3.83-3.48c-1,0-1.68.72-1.81,1.91h3.39C22.8,62.19,22.17,61.53,21.18,61.53Z" transform="translate(0.5 1.54)"/><path class="cls-4" d="M34.31,64.79a6,6,0,0,1-.81,0v4.38H31.1V56.71c1-.06,2.12-.08,3.34-.08,3.05,0,4.73,1.42,4.73,3.85S37.33,64.79,34.31,64.79Zm0-6.21c-.29,0-.57,0-.84,0v4.15a5.76,5.76,0,0,0,.7,0c1.47,0,2.48-.83,2.48-2.17S36,58.58,34.34,58.58Z" transform="translate(0.5 1.54)"/><path class="cls-4" d="M44.14,69.32c-2.59,0-4.27-1.35-4.27-4.6a4.6,4.6,0,0,1,4.68-4.92c2.59,0,4.27,1.44,4.27,4.58A4.63,4.63,0,0,1,44.14,69.32Zm.24-7.53c-1.05,0-2.08.81-2.08,2.69s.68,2.83,2,2.83c1.16,0,2-.94,2-2.8S45.76,61.79,44.38,61.79Z" transform="translate(0.5 1.54)"/><path class="cls-4" d="M56.26,62.12c-1.75-.37-2.6.74-2.6,3.28v3.73H51.32V61.79c-.44-.08-1.06-.15-1.6-.19V60.13A26.53,26.53,0,0,1,53.53,60a12.08,12.08,0,0,1-.16,1.86h0a2.76,2.76,0,0,1,3-2Z" transform="translate(0.5 1.54)"/><path class="cls-4" d="M61.29,69.32c-2,0-2.65-.74-2.65-2.87V61.81H57.05V60h1.59V57.17L61,56.54V60H63.2v1.83H61v4c0,1.18.28,1.51,1.09,1.51a3.77,3.77,0,0,0,1-.13l.17,1.86A8.68,8.68,0,0,1,61.29,69.32Z" transform="translate(0.5 1.54)"/><path class="cls-4" d="M71.43,69.15a11,11,0,0,1,.11-1.65h0a3.33,3.33,0,0,1-3.1,1.82c-2.08,0-2.74-1.31-2.74-2.91V61.79c-.44-.08-1-.15-1.58-.19V60.13A28.45,28.45,0,0,1,68,60v5.88c0,.94.26,1.51,1.12,1.51,1.2,0,2.14-1.35,2.14-2.95V60h2.34v7.35c.44.07,1.06.15,1.6.18V69A26.6,26.6,0,0,1,71.43,69.15Z" transform="translate(0.5 1.54)"/><path class="cls-4" d="M83,69.15a11,11,0,0,1,.11-1.65h0A3.31,3.31,0,0,1,80,69.32c-2.08,0-2.75-1.31-2.75-2.91V61.79c-.44-.08-1-.15-1.58-.19V60.13A28.52,28.52,0,0,1,79.61,60v5.88c0,.94.26,1.51,1.12,1.51,1.2,0,2.14-1.35,2.14-2.95V60h2.34v7.35c.44.07,1.07.15,1.6.18V69A26.46,26.46,0,0,1,83,69.15Z" transform="translate(0.5 1.54)"/><path class="cls-4" d="M93.83,62.12c-1.75-.37-2.6.74-2.6,3.28v3.73H88.89V61.79c-.44-.08-1.06-.15-1.6-.19V60.13A26.53,26.53,0,0,1,91.1,60a12.08,12.08,0,0,1-.16,1.86h0a2.78,2.78,0,0,1,3-2Z" transform="translate(0.5 1.54)"/><path class="cls-4" d="M8.25,79V77.11H6.11V79H5.66V75h.45v1.7H8.25V75h.44V79Z" transform="translate(0.5 1.54)"/><path class="cls-4" d="M11.87,77.47H9.94c0,.81.31,1.17,1,1.17a2.07,2.07,0,0,0,.82-.16l.08.35a2.81,2.81,0,0,1-1,.18c-.86,0-1.33-.47-1.33-1.48S10,76,10.76,76a1.05,1.05,0,0,1,1.12,1.17C11.88,77.24,11.88,77.36,11.87,77.47Zm-1.14-1.12a.81.81,0,0,0-.78.8h1.48A.69.69,0,0,0,10.73,76.35Z" transform="translate(0.5 1.54)"/><path class="cls-4" d="M13.56,79c-.58,0-.75-.26-.75-.86V76.41h-.63v-.35h.63v-1l.44-.12v1.08h.85v.35h-.85V78c0,.52.09.65.44.65a1.6,1.6,0,0,0,.39-.05l.05.37A2.69,2.69,0,0,1,13.56,79Z" transform="translate(0.5 1.54)"/><path class="cls-4" d="M18.61,79,17,76.3c-.16-.28-.3-.53-.43-.78,0,.44,0,1.62,0,2.33V79h-.43V75h.59l1.64,2.62c.16.25.31.53.45.8,0-.53,0-1.68,0-2.42V75h.44V79Z" transform="translate(0.5 1.54)"/><path class="cls-4" d="M22.39,77.47H20.45c0,.81.31,1.17,1,1.17a2.15,2.15,0,0,0,.83-.16l.07.35a2.72,2.72,0,0,1-1,.18c-.87,0-1.33-.47-1.33-1.48S20.47,76,21.27,76a1.06,1.06,0,0,1,1.13,1.17C22.4,77.24,22.4,77.36,22.39,77.47Zm-1.15-1.12c-.4,0-.7.3-.77.8h1.47A.68.68,0,0,0,21.24,76.35Z" transform="translate(0.5 1.54)"/><path class="cls-4" d="M24.08,79c-.58,0-.75-.26-.75-.86V76.41H22.7v-.35h.63v-1l.43-.12v1.08h.85v.35h-.85V78c0,.52.1.65.44.65a1.48,1.48,0,0,0,.39-.05l.05.37A2.52,2.52,0,0,1,24.08,79Z" transform="translate(0.5 1.54)"/><path class="cls-4" d="M28.4,79h-.5l-.64-1.87c-.06-.18-.11-.36-.16-.56h0c-.06.26-.13.49-.21.73L26.35,79h-.51L25,76.06h.49l.49,1.73c.07.25.15.51.2.71h0c.05-.23.12-.48.19-.71l.56-1.73h.49l.56,1.72c.12.37.16.53.21.72h0c.06-.22.11-.41.2-.71l.52-1.73h.47Z" transform="translate(0.5 1.54)"/><path class="cls-4" d="M32.09,77.47H30.15c0,.81.31,1.17,1,1.17a2.15,2.15,0,0,0,.83-.16l.07.35A2.72,2.72,0,0,1,31,79c-.87,0-1.33-.47-1.33-1.48S30.17,76,31,76a1.06,1.06,0,0,1,1.13,1.17C32.1,77.24,32.1,77.36,32.09,77.47Zm-1.15-1.12c-.4,0-.7.3-.77.8h1.47A.68.68,0,0,0,30.94,76.35Z" transform="translate(0.5 1.54)"/><path class="cls-4" d="M34.46,76.45c-.67-.12-1,.38-1,1.35V79h-.43V76.41l-.51-.06V76.1a7,7,0,0,1,.94,0,5.11,5.11,0,0,1-.07.73h0a.92.92,0,0,1,1-.78Z" transform="translate(0.5 1.54)"/><path class="cls-4" d="M36.77,79l-1.14-1.52V79H35.2v-3.9a3.76,3.76,0,0,0-.51-.06v-.25a4.79,4.79,0,0,1,.94,0v2.65l1.09-1.3h.53L36.1,77.38,37.34,79Z" transform="translate(0.5 1.54)"/><path class="cls-4" d="M40.37,79h-.49l-1.07-2.9h.49L40,78c.07.2.12.36.17.54h0c0-.17.1-.34.16-.52L41,76.06h.48Z" transform="translate(0.5 1.54)"/><path class="cls-4" d="M43.48,79a3.83,3.83,0,0,1,0-.61h0a1,1,0,0,1-1,.66.74.74,0,0,1-.8-.76c0-.59.63-1,1.77-1V77c0-.44-.16-.68-.66-.68a1.92,1.92,0,0,0-.86.22l-.09-.37a2.84,2.84,0,0,1,1-.2c.81,0,1,.4,1,.94v1.66c.14,0,.33,0,.5.06v.25A6.93,6.93,0,0,1,43.48,79Zm0-1.39c-1,0-1.33.3-1.33.61a.46.46,0,0,0,.47.48,1,1,0,0,0,.86-1Z" transform="translate(0.5 1.54)"/><path class="cls-4" d="M47.05,79V77.09c0-.46-.12-.72-.55-.72s-.88.51-.88,1.2V79h-.43V76.41l-.51-.06V76.1a7.08,7.08,0,0,1,.94,0,3.49,3.49,0,0,1-.06.65h0a1.06,1.06,0,0,1,1-.71c.67,0,.88.41.88.93v2Z" transform="translate(0.5 1.54)"/><path class="cls-4" d="M49.56,79v-.33l1.74-2.71.35-.51h-2V75h2.54v.33l-1.84,2.83-.25.38c.13,0,.51,0,1,0h1.07V79Z" transform="translate(0.5 1.54)"/><path class="cls-4" d="M53.81,79c-.77,0-1.27-.47-1.27-1.48A1.39,1.39,0,0,1,53.92,76c.7,0,1.28.39,1.28,1.45A1.42,1.42,0,0,1,53.81,79Zm.07-2.64c-.46,0-.89.35-.89,1.12s.32,1.15.89,1.15.87-.35.87-1.15S54.45,76.37,53.88,76.37Z" transform="translate(0.5 1.54)"/><path class="cls-4" d="M57.53,76.45c-.67-.12-1,.38-1,1.35V79h-.43V76.41l-.51-.06V76.1a7.16,7.16,0,0,1,.94,0,4,4,0,0,1-.07.73h0A.93.93,0,0,1,57.55,76Z" transform="translate(0.5 1.54)"/><path class="cls-4" d="M58.86,80.46a3,3,0,0,1-.84-.11l.07-.43a2.39,2.39,0,0,0,.82.15c.63,0,1-.24,1-.95v-.25a2.9,2.9,0,0,1,0-.54h0a1,1,0,0,1-1,.69c-.68,0-1.07-.46-1.07-1.37A1.44,1.44,0,0,1,59.38,76a5.67,5.67,0,0,1,.94.08v3.13C60.32,79.73,60.1,80.46,58.86,80.46Zm1-4a2.22,2.22,0,0,0-.57-.07c-.59,0-1,.36-1,1.24,0,.65.22,1,.7,1s.86-.68.86-1.19Z" transform="translate(0.5 1.54)"/><path class="cls-4" d="M63.14,79a4.34,4.34,0,0,1,0-.63h0a1,1,0,0,1-1,.69c-.71,0-1.06-.52-1.06-1.37A1.43,1.43,0,0,1,62.6,76l.54,0v-1a3.76,3.76,0,0,0-.51-.06v-.25a4.79,4.79,0,0,1,.94,0v3.9l.51.06v.25A7.08,7.08,0,0,1,63.14,79Zm0-2.52a3,3,0,0,0-.57-.07c-.6,0-1,.36-1,1.24,0,.65.22,1,.7,1s.86-.68.86-1.19Z" transform="translate(0.5 1.54)"/><path class="cls-4" d="M66.84,77.47H64.91c0,.81.3,1.17,1,1.17a2.07,2.07,0,0,0,.82-.16l.07.35a2.72,2.72,0,0,1-1,.18c-.86,0-1.33-.47-1.33-1.48S64.92,76,65.73,76a1.05,1.05,0,0,1,1.12,1.17C66.85,77.24,66.85,77.36,66.84,77.47ZM65.7,76.35a.81.81,0,0,0-.78.8H66.4A.69.69,0,0,0,65.7,76.35Z" transform="translate(0.5 1.54)"/><path class="cls-4" d="M68.12,79a2.64,2.64,0,0,1-.65-.07l0-.41a2,2,0,0,0,.66.11c.4,0,.69-.18.69-.49,0-.71-1.42-.26-1.42-1.29,0-.48.38-.85,1.12-.85a3.55,3.55,0,0,1,.57.06l0,.37a2.12,2.12,0,0,0-.57-.09c-.42,0-.63.18-.63.46,0,.7,1.42.29,1.42,1.29C69.32,78.61,68.87,79,68.12,79Z" transform="translate(0.5 1.54)"/><path class="cls-4" d="M71.79,79l-1.14-1.52V79h-.43v-3.9a3.76,3.76,0,0,0-.51-.06v-.25a4.79,4.79,0,0,1,.94,0v2.65l1.09-1.3h.53l-1.15,1.32L72.36,79Z" transform="translate(0.5 1.54)"/><path class="cls-4" d="M74.94,79a3.56,3.56,0,0,1,0-.65h0a1.08,1.08,0,0,1-1,.7c-.67,0-.87-.41-.87-.93V76.41l-.51-.06V76.1a7.24,7.24,0,0,1,.94,0v1.87c0,.46.13.72.55.72s.89-.51.89-1.2V76.06h.43v2.55l.51.06v.25A7.16,7.16,0,0,1,74.94,79Z" transform="translate(0.5 1.54)"/><path class="cls-4" d="M78.53,79V77.09c0-.46-.12-.72-.55-.72s-.89.51-.89,1.2V79h-.43V76.41l-.5-.06V76.1a6.93,6.93,0,0,1,.93,0,3.49,3.49,0,0,1,0,.65h0a1.08,1.08,0,0,1,1-.71c.66,0,.87.41.87.93v2Z" transform="translate(0.5 1.54)"/><path class="cls-4" d="M81.77,79a3.28,3.28,0,0,1,.06-.63h0a1.05,1.05,0,0,1-1,.69c-.72,0-1.07-.52-1.07-1.37A1.43,1.43,0,0,1,81.24,76l.53,0v-1a3.43,3.43,0,0,0-.5-.06v-.25a4.76,4.76,0,0,1,.94,0v3.9c.14,0,.33,0,.5.06v.25A7,7,0,0,1,81.77,79Zm0-2.52a2.78,2.78,0,0,0-.57-.07c-.59,0-1,.36-1,1.24,0,.65.22,1,.7,1s.86-.68.86-1.19Z" transform="translate(0.5 1.54)"/><path class="cls-4" d="M83.5,79V76.41L83,76.35V76.1a7.16,7.16,0,0,1,.94,0V79Zm.22-3.53a.29.29,0,0,1-.3-.3.3.3,0,0,1,.3-.3.29.29,0,0,1,.3.3A.3.3,0,0,1,83.72,75.43Z" transform="translate(0.5 1.54)"/><path class="cls-4" d="M85.71,80.46a3,3,0,0,1-.84-.11l.06-.43a2.5,2.5,0,0,0,.83.15c.63,0,1-.24,1-.95v-.25a2.9,2.9,0,0,1,0-.54h0a1,1,0,0,1-1,.69c-.68,0-1.07-.46-1.07-1.37A1.44,1.44,0,0,1,86.23,76a5.67,5.67,0,0,1,.94.08v3.13C87.17,79.73,86.94,80.46,85.71,80.46Zm1-4a2.22,2.22,0,0,0-.57-.07c-.59,0-1,.36-1,1.24,0,.65.22,1,.7,1s.86-.68.86-1.19Z" transform="translate(0.5 1.54)"/><path class="cls-4" d="M90.34,77.47H88.41c0,.81.31,1.17,1,1.17a2.07,2.07,0,0,0,.82-.16l.08.35a2.81,2.81,0,0,1-1,.18c-.86,0-1.33-.47-1.33-1.48S88.43,76,89.23,76a1.06,1.06,0,0,1,1.13,1.17A1.68,1.68,0,0,1,90.34,77.47ZM89.2,76.35c-.41,0-.7.3-.77.8H89.9A.69.69,0,0,0,89.2,76.35Z" transform="translate(0.5 1.54)"/><path class="cls-4" d="M93.18,79V77.09c0-.46-.13-.72-.55-.72s-.89.51-.89,1.2V79h-.43V76.41l-.5-.06V76.1a6.93,6.93,0,0,1,.93,0,3.49,3.49,0,0,1,0,.65h0a1.08,1.08,0,0,1,1-.71c.66,0,.87.41.87.93v2Z" transform="translate(0.5 1.54)"/><g class="cls-5"><path class="cls-4" d="M64.33,30.47a5.48,5.48,0,0,0-2.72-4,5.56,5.56,0,0,0-3.33-.58,5.66,5.66,0,0,0-.59-3.34,5.51,5.51,0,0,0-4-2.72,11.87,11.87,0,0,0-4.09.09,11.87,11.87,0,0,0-4.09-.09,5.51,5.51,0,0,0-4,2.72A5.58,5.58,0,0,0,41,25.93a5.55,5.55,0,0,0-3.33.58,5.48,5.48,0,0,0-2.72,4A11.63,11.63,0,0,0,35,34.56,11.63,11.63,0,0,0,35,38.65a5.46,5.46,0,0,0,2.72,4,5.35,5.35,0,0,0,2.58.63c.25,0,.5,0,.75,0a5.59,5.59,0,0,0,.59,3.34,5.47,5.47,0,0,0,4,2.71,8.39,8.39,0,0,0,1.63.14,14.92,14.92,0,0,0,2.46-.23,14.92,14.92,0,0,0,2.46.23,8.46,8.46,0,0,0,1.63-.14,5.47,5.47,0,0,0,4-2.71,5.67,5.67,0,0,0,.59-3.34c.25,0,.5,0,.74,0a5.39,5.39,0,0,0,2.59-.63,5.46,5.46,0,0,0,2.72-4,11.87,11.87,0,0,0-.09-4.09A11.87,11.87,0,0,0,64.33,30.47Zm-21.55,5c-.52.33-1,.57-1.3.75,0-.27.09-.59.16-1a3.17,3.17,0,0,0,.07-.69,3.08,3.08,0,0,0-.07-.68c-.07-.37-.13-.68-.16-1a11.9,11.9,0,0,1,1.3.75c.4.26.82.56,1.25.88C43.6,34.89,43.18,35.18,42.78,35.45Zm6.14-8.9a1.78,1.78,0,0,0,.39.07h.33a3.25,3.25,0,0,0,.69-.08l.94-.16a11,11,0,0,1-.75,1.3c-.26.41-.56.82-.88,1.25-.33-.43-.62-.84-.89-1.25A14.86,14.86,0,0,1,48,26.4Zm1.4,16a3.34,3.34,0,0,0-1.36,0,9.54,9.54,0,0,1-1,.16c.18-.35.42-.78.75-1.3s.56-.82.89-1.25c.32.43.62.85.88,1.25a11.9,11.9,0,0,1,.75,1.3C51,42.69,50.69,42.64,50.32,42.56Zm7.32-7.31c.07.36.12.68.16,1-.35-.18-.78-.42-1.3-.75s-.82-.56-1.25-.89c.43-.32.84-.62,1.25-.88a11.9,11.9,0,0,1,1.3-.75c0,.27-.09.58-.16,1a3.08,3.08,0,0,0-.07.68A3.17,3.17,0,0,0,57.64,35.25Z" transform="translate(0.5 1.54)"/><g class="cls-6"><path class="cls-7" d="M59,43.24A10.47,10.47,0,0,1,54,41.64a31.73,31.73,0,0,1-6.36-5,31.53,31.53,0,0,1-5-6.36c-1.73-3.05-2.06-5.63-1-7.66a5.51,5.51,0,0,1,4-2.72,12.51,12.51,0,0,1,4.75.22A3.31,3.31,0,0,1,49,26.57c-.38-.08-.7-.13-1-.17a14.86,14.86,0,0,0,.75,1.3,26.89,26.89,0,0,0,3.52,4.23,27.35,27.35,0,0,0,4.23,3.52c.52.33,1,.57,1.3.75,0-.27-.09-.6-.17-1a3.31,3.31,0,1,1,6.48-1.33,12.52,12.52,0,0,1,.22,4.75,5.46,5.46,0,0,1-2.72,4A5.39,5.39,0,0,1,59,43.24Z" transform="translate(0.5 1.54)"/></g><g class="cls-6"><path class="cls-8" d="M40.25,43.24a5.35,5.35,0,0,1-2.58-.63,5.46,5.46,0,0,1-2.72-4,12.52,12.52,0,0,1,.22-4.75,3.3,3.3,0,1,1,6.47,1.33c-.07.37-.13.7-.16,1,.35-.18.78-.42,1.3-.75A27.83,27.83,0,0,0,47,31.93a26.25,26.25,0,0,0,3.51-4.23,11,11,0,0,0,.75-1.3c-.27,0-.59.09-1,.17a3.71,3.71,0,0,1-.67.07A3.31,3.31,0,0,1,49,20.09a12.5,12.5,0,0,1,4.75-.22,5.51,5.51,0,0,1,4,2.72c1.09,2,.76,4.61-1,7.66a31.1,31.1,0,0,1-5,6.36,31.49,31.49,0,0,1-6.37,5A10.44,10.44,0,0,1,40.25,43.24Z" transform="translate(0.5 1.54)"/></g><g class="cls-6"><path class="cls-9" d="M52.1,49.39A16.09,16.09,0,0,1,49,49a3.31,3.31,0,1,1,1.32-6.48c.38.08.7.12,1,.16a11.9,11.9,0,0,0-.75-1.3A27.15,27.15,0,0,0,47,37.19a27.15,27.15,0,0,0-4.23-3.51,11.9,11.9,0,0,0-1.3-.75c0,.27.09.59.16,1a3.29,3.29,0,0,1-2.57,3.9,3.11,3.11,0,0,1-.67.07,3.3,3.3,0,0,1-3.23-2.64A12.56,12.56,0,0,1,35,30.47a5.48,5.48,0,0,1,2.72-4c2-1.09,4.61-.76,7.65,1a31.77,31.77,0,0,1,6.37,5,31.41,31.41,0,0,1,5,6.37c1.74,3,2.07,5.62,1,7.66a5.47,5.47,0,0,1-4,2.71A8.46,8.46,0,0,1,52.1,49.39Z" transform="translate(0.5 1.54)"/></g><g class="cls-6"><path class="cls-10" d="M47.18,49.39a8.39,8.39,0,0,1-1.63-.14,5.47,5.47,0,0,1-4-2.71c-1.09-2-.76-4.61,1-7.66A34.7,34.7,0,0,1,54,27.49c3-1.74,5.63-2.07,7.66-1a5.48,5.48,0,0,1,2.72,4,12.56,12.56,0,0,1-.22,4.76,3.31,3.31,0,0,1-6.48-1.33c.08-.38.13-.7.17-1a11.9,11.9,0,0,0-1.3.75,26.69,26.69,0,0,0-4.23,3.51,27.83,27.83,0,0,0-3.52,4.23c-.33.52-.57.95-.75,1.3.28,0,.6-.08,1-.16A3.31,3.31,0,1,1,50.3,49,16.17,16.17,0,0,1,47.18,49.39Z" transform="translate(0.5 1.54)"/></g><g class="cls-11"><g class="cls-6"><path class="cls-7" d="M59,45.78A10.58,10.58,0,0,1,54,44.18a32.09,32.09,0,0,1-6.36-5,32.09,32.09,0,0,1-5-6.36c-1.73-3.05-2.06-5.63-1-7.66a5.48,5.48,0,0,1,4-2.72,12.51,12.51,0,0,1,4.75.22A3.31,3.31,0,0,1,49,29.11c-.38-.08-.7-.13-1-.17.18.35.42.78.75,1.3a27.35,27.35,0,0,0,3.52,4.23A26.69,26.69,0,0,0,56.5,38a11.9,11.9,0,0,0,1.3.75c0-.27-.09-.59-.17-1a3.31,3.31,0,1,1,6.48-1.33,12.51,12.51,0,0,1,.22,4.75,5.46,5.46,0,0,1-2.72,4A5.39,5.39,0,0,1,59,45.78Z" transform="translate(0.5 1.54)"/></g><g class="cls-6"><path class="cls-8" d="M40.25,45.78a5.35,5.35,0,0,1-2.58-.63,5.46,5.46,0,0,1-2.72-4,12.51,12.51,0,0,1,.22-4.75,3.3,3.3,0,1,1,6.47,1.33c-.07.37-.13.69-.16,1a11.9,11.9,0,0,0,1.3-.75A27.15,27.15,0,0,0,47,34.47a26.69,26.69,0,0,0,3.51-4.23,11.9,11.9,0,0,0,.75-1.3c-.27,0-.59.09-1,.17a3.71,3.71,0,0,1-.67.06A3.3,3.3,0,0,1,49,22.63a12.5,12.5,0,0,1,4.75-.22,5.48,5.48,0,0,1,4,2.72c1.09,2,.76,4.61-1,7.66a31.65,31.65,0,0,1-5,6.36,31.85,31.85,0,0,1-6.37,5A10.55,10.55,0,0,1,40.25,45.78Z" transform="translate(0.5 1.54)"/></g><g class="cls-6"><path class="cls-9" d="M52.1,51.93A15.41,15.41,0,0,1,49,51.57,3.3,3.3,0,1,1,50.3,45.1c.38.07.7.13,1,.16a11.9,11.9,0,0,0-.75-1.3A27.15,27.15,0,0,0,47,39.73a27.15,27.15,0,0,0-4.23-3.51,11.9,11.9,0,0,0-1.3-.75c0,.27.09.59.16,1a3.3,3.3,0,0,1-2.57,3.9,3.11,3.11,0,0,1-.67.07,3.3,3.3,0,0,1-3.23-2.64A12.57,12.57,0,0,1,35,33a5.48,5.48,0,0,1,2.72-4c2-1.09,4.61-.76,7.65,1a31.85,31.85,0,0,1,6.37,5,31.41,31.41,0,0,1,5,6.37c1.74,3,2.07,5.62,1,7.65a5.48,5.48,0,0,1-4,2.72A9.34,9.34,0,0,1,52.1,51.93Z" transform="translate(0.5 1.54)"/></g><g class="cls-6"><path class="cls-10" d="M47.18,51.93a9.25,9.25,0,0,1-1.63-.14,5.48,5.48,0,0,1-4-2.72c-1.09-2-.76-4.6,1-7.65A34.86,34.86,0,0,1,54,30c3-1.73,5.63-2.06,7.66-1a5.48,5.48,0,0,1,2.72,4,12.57,12.57,0,0,1-.22,4.76,3.31,3.31,0,0,1-6.48-1.33c.08-.38.13-.7.17-1a11.9,11.9,0,0,0-1.3.75,26.69,26.69,0,0,0-4.23,3.51A27.83,27.83,0,0,0,48.75,44c-.33.52-.57.95-.75,1.3.28,0,.6-.09,1-.16a3.3,3.3,0,1,1,1.32,6.47A15.49,15.49,0,0,1,47.18,51.93Z" transform="translate(0.5 1.54)"/></g></g></g><g class="cls-12"><path class="cls-13" d="M57.69,22.59a5.51,5.51,0,0,0-4-2.72,11.87,11.87,0,0,0-4.09.09,11.87,11.87,0,0,0-4.09-.09,5.51,5.51,0,0,0-4,2.72A5.58,5.58,0,0,0,41,25.93a5.55,5.55,0,0,0-3.33.58,5.48,5.48,0,0,0-2.72,4A11.63,11.63,0,0,0,35,34.56,11.63,11.63,0,0,0,35,38.65a5.46,5.46,0,0,0,2.72,4l.39.19L57.88,23C57.82,22.85,57.76,22.72,57.69,22.59ZM42.78,35.45c-.52.33-1,.57-1.3.75,0-.27.09-.59.16-1a3.17,3.17,0,0,0,.07-.69,3.08,3.08,0,0,0-.07-.68c-.07-.37-.13-.68-.16-1a11.9,11.9,0,0,1,1.3.75c.4.26.82.56,1.25.88C43.6,34.89,43.18,35.18,42.78,35.45Zm7.74-7.75c-.26.41-.56.82-.88,1.25-.33-.43-.62-.84-.89-1.25A14.86,14.86,0,0,1,48,26.4l.92.15a1.78,1.78,0,0,0,.39.07h.33a3.25,3.25,0,0,0,.69-.08l.94-.16A11,11,0,0,1,50.52,27.7Z" transform="translate(0.5 1.54)"/></g><path class="cls-4" d="M54.87,34.56a5.23,5.23,0,1,1-5.23-5.22A5.23,5.23,0,0,1,54.87,34.56Z" transform="translate(0.5 1.54)"/></g></g></svg>