<svg id="Layer_1" data-name="Layer 1" xmlns="http://www.w3.org/2000/svg" xmlns:xlink="http://www.w3.org/1999/xlink" viewBox="0 0 100 101.72"><defs><style>.cls-1{fill:none;}.cls-2{clip-path:url(#clip-path);}.cls-3{fill:#009877;}.cls-4{fill:#fff;}</style><clipPath id="clip-path" transform="translate(0 0)"><rect class="cls-1" width="100" height="101.72"/></clipPath></defs><title>desktop</title><g class="cls-2"><path class="cls-3" d="M100,90.14V0H0V100s47.5,7.31,99.94-8.21Z" transform="translate(0 0)"/><path class="cls-4" d="M29.18,77.69a6,6,0,0,1-1.64,3.75c-1.88,1.73-6,2.88-7.63,3-.67,0-1.34-1.11-1-1.29.67-.3,1.32-.46,1.32-.82,0-.82,0-2-.17-3.83s-.29-2.82-.29-3.2.77-.73,1.17-.73c.19,0,.9.33,1,.73s.11,1.57.17,2.95c0,1.17.06,2.6.08,3.5a.23.23,0,0,0,.26.25,6.34,6.34,0,0,0,3.68-1.89,3.48,3.48,0,0,0,.88-2A3.44,3.44,0,0,0,26,76c-.95-1-4-2.24-6.05-2.6a1.18,1.18,0,0,1-.76-.92c0-.33.8-.94,1.38-.94A19.32,19.32,0,0,1,26.82,74c1.08.84,2.36,2.33,2.36,3.67Z" transform="translate(0 0)"/><path class="cls-4" d="M36.12,83.06c0,.28-.83,1-1.17,1a5.6,5.6,0,0,1-3.81-2.32A4.51,4.51,0,0,1,30.87,78c.59-1.4,2.76-3,3.87-3a1.11,1.11,0,0,1,1,1c0,.27-.17.6-.36.65a2.66,2.66,0,0,0-2,1.06c-.21.23,0,.36.3.4s1.21.17,1.86.21c.38,0,0,1.38-.48,1.38-.69,0-1.76-.17-2-.21s-.32.08-.32.28c.06,1.14,1,2.23,3.08,2.69a.65.65,0,0,1,.37.51Z" transform="translate(0 0)"/><path class="cls-4" d="M50.5,82.54c0,.27-.63.84-1.11.92a43.76,43.76,0,0,1-5.17.46,9.13,9.13,0,0,1-1.08,0c-.21,0-.47-.69-.47-.92s.11-.21.47-.35c.16,0,.23-.49.23-1,0-1,0-2.13,0-3.35a38,38,0,0,1,.4-5.55c.18-.54,1.15-.81,1.48-.81s.69.44.63.67a45.71,45.71,0,0,0-.61,6.82,12.86,12.86,0,0,0,.12,2.74c.09.11.38.13.74.13,1.09,0,3-.57,3.67-.57a1.21,1.21,0,0,1,.68.88Z" transform="translate(0 0)"/><path class="cls-4" d="M54.84,72.64c0,.65-.73,1-1.29,1a1.17,1.17,0,0,1-.88-1,1.32,1.32,0,0,1,1.08-1.12,1.15,1.15,0,0,1,1.09,1.09ZM54.3,76a44.5,44.5,0,0,1-.63,6.58,1.37,1.37,0,0,1-1.07.58c-.35,0-1.15-.55-1-1a52.88,52.88,0,0,0,.81-6.45c0-.23.51-.58.67-.58.52,0,1.26.52,1.26.83Z" transform="translate(0 0)"/><path class="cls-4" d="M64.4,79.74A11.65,11.65,0,0,1,64,83a2.39,2.39,0,0,1-1.46,1.2c-.15,0-.59-.21-.57-.38a21.94,21.94,0,0,0,.34-3.1A3.56,3.56,0,0,0,62,79a.93.93,0,0,0-.59-.4c-.63,0-1.92,1.09-2.74,2.35-.15.23-.38.61-.48.77s-1.59-.16-1.72-.69S56.2,76.6,56,75.43c0-.19.39-.73.77-.73.61,0,1.41.24,1.46.52.13.58.09,2.63.17,3.3,0,.09.11.19.17.19.28,0,1.82-2.24,3.62-2.24a2.48,2.48,0,0,1,1.93,1,6.84,6.84,0,0,1,.33,2.21Z" transform="translate(0 0)"/><path class="cls-4" d="M71.4,78.56c0-.49-.08-.71-.39-.71a4.11,4.11,0,0,0-1.83.49,1.69,1.69,0,0,0-1,1.57c0,.92,1.21,1.73,2.39,1.73a.6.6,0,0,0,.62-.33,12,12,0,0,0,.23-2.72ZM73.58,70c0,1.94-.11,5.06-.25,7.4-.13,2.18-.28,4.73-.46,6.16-.07.56-1.8.79-1.8.52s-.17-.61-.42-.65a11.82,11.82,0,0,1-2.54-.65A3.44,3.44,0,0,1,66,79.86a3.25,3.25,0,0,1,1.63-2.72A10.5,10.5,0,0,1,71.28,76c.2,0,.29-.4.31-1v-5.1c0-.27.73-.5,1-.5s.94.42.94.6Z" transform="translate(0 0)"/><path class="cls-4" d="M80.71,83.06c0,.28-.84,1-1.17,1a5.58,5.58,0,0,1-3.81-2.32A4.51,4.51,0,0,1,75.45,78c.59-1.4,2.77-3,3.88-3a1.11,1.11,0,0,1,1,1c0,.27-.17.6-.36.65a2.66,2.66,0,0,0-2,1.06c-.21.23,0,.36.3.4s1.21.17,1.86.21c.37,0,0,1.38-.48,1.38-.69,0-1.76-.17-2.05-.21s-.32.08-.32.28c.07,1.14,1,2.23,3.08,2.69a.64.64,0,0,1,.38.51Z" transform="translate(0 0)"/><path class="cls-4" d="M31.31,22.92a1.94,1.94,0,0,0,.46,1.38A1.93,1.93,0,0,0,32.48,23,3.24,3.24,0,0,0,32,21.37a3.31,3.31,0,0,0-.73,1.55m.41-4.22a2.52,2.52,0,0,0,.51,1.22,1.42,1.42,0,0,0,1,.42,1.48,1.48,0,0,0-.36-1.06,2.43,2.43,0,0,0-1.17-.58m1.36,7.41a2,2,0,0,0,.56-1.38A3.43,3.43,0,0,0,33,23.1a3.25,3.25,0,0,0-.55,1.67,2,2,0,0,0,.64,1.34m-8.6,4.58A1.9,1.9,0,0,0,25.17,32a1.93,1.93,0,0,0,.47-1.38A3.15,3.15,0,0,0,24.91,29a3.12,3.12,0,0,0-.43,1.65m10-10.35a1.75,1.75,0,0,0-.28,1.31A1.73,1.73,0,0,0,35.38,21a3,3,0,0,0,.43-1.53,2.88,2.88,0,0,0-1.3.88m-3.94.27A1.9,1.9,0,0,0,31,22a1.89,1.89,0,0,0,.7-1.27,3.13,3.13,0,0,0-.44-1.66,3.33,3.33,0,0,0-.72,1.55m4.57,6.47a1.94,1.94,0,0,0,.09-1.48,3.3,3.3,0,0,0-1.15-1.33,3.39,3.39,0,0,0,0,1.76,1.86,1.86,0,0,0,1,1m0-4a1.72,1.72,0,0,0,1-.91,3,3,0,0,0,.08-1.58,2.89,2.89,0,0,0-1.07,1.15,1.78,1.78,0,0,0,0,1.34M30,33.48a3.11,3.11,0,0,0-1.71.29,3.16,3.16,0,0,0,1.49.9,1.86,1.86,0,0,0,1.42-.34,1.9,1.9,0,0,0-1.2-.85m2.15,2.64a1.93,1.93,0,0,0,1.43-.35,1.94,1.94,0,0,0-1.21-.85,3.15,3.15,0,0,0-1.7.3,3.26,3.26,0,0,0,1.48.9m-3.4-11.49a3,3,0,0,0-.4-1.56,3,3,0,0,0-.69,1.45,1.79,1.79,0,0,0,.42,1.3,1.78,1.78,0,0,0,.67-1.19m.07,6.92a3.17,3.17,0,0,0-1.72-.15,3.23,3.23,0,0,0,1.22,1.26,1.88,1.88,0,0,0,1.46,0,2,2,0,0,0-1-1.13m-1.54-3.91a3.16,3.16,0,0,0-1.73.2,3.2,3.2,0,0,0,1.45,1,1.89,1.89,0,0,0,1.45-.27,1.92,1.92,0,0,0-1.17-.92M25.85,31.9A1.68,1.68,0,0,0,26.46,33a1.7,1.7,0,0,0,.41-1.21,2.78,2.78,0,0,0-.63-1.35,2.81,2.81,0,0,0-.39,1.45m2-2.4a3.14,3.14,0,0,0-1.71.26,3.23,3.23,0,0,0,1.47.93,1.88,1.88,0,0,0,1.43-.32,1.93,1.93,0,0,0-1.19-.87M42.25,18.94a3.12,3.12,0,0,0-1.65-.42,3.32,3.32,0,0,0,1,1.41,1.84,1.84,0,0,0,1.41.26,1.93,1.93,0,0,0-.75-1.25m-4.71,1.7a2.32,2.32,0,0,0,.52,1.12,1.34,1.34,0,0,0,1,.37,1.37,1.37,0,0,0-.37-1,2.24,2.24,0,0,0-1.11-.51m3.24,3.17a3.25,3.25,0,0,0-1.63.59,3.18,3.18,0,0,0,1.62.63,1.91,1.91,0,0,0,1.34-.59,1.89,1.89,0,0,0-1.33-.63m2.2-3.2a2.61,2.61,0,0,0-1.41.21,2.64,2.64,0,0,0,1.21.77A1.53,1.53,0,0,0,44,21.32a1.59,1.59,0,0,0-1-.71M39.7,22.47a3.25,3.25,0,0,0-1.71.26,3.23,3.23,0,0,0,1.47.93,1.88,1.88,0,0,0,1.43-.32,1.93,1.93,0,0,0-1.19-.87M29,21.32a3.06,3.06,0,0,0-1.64-.27,3,3,0,0,0,1.08,1.28,1.84,1.84,0,0,0,1.4.14A1.83,1.83,0,0,0,29,21.32m12-.46a3.21,3.21,0,0,0,.28,1.7,1.86,1.86,0,0,0,1.16.86A1.91,1.91,0,0,0,42.35,22a3.06,3.06,0,0,0-1.3-1.11M43,23.54a1.57,1.57,0,0,0,.58,1.07,1.62,1.62,0,0,0,.4-1.15,2.69,2.69,0,0,0-.6-1.31A2.65,2.65,0,0,0,43,23.54m.25,4.9a3.12,3.12,0,0,0-1.72-.14,3.31,3.31,0,0,0,1.23,1.24,1.9,1.9,0,0,0,1.46,0,1.87,1.87,0,0,0-1-1.11m-.73,4.72a1.64,1.64,0,0,0,1.24.28,1.72,1.72,0,0,0-.63-1.12,2.72,2.72,0,0,0-1.43-.43,2.82,2.82,0,0,0,.82,1.27m.16-1.82A1.91,1.91,0,0,0,44,32a2,2,0,0,0-.44-1.43A3.28,3.28,0,0,0,42,29.7a3.32,3.32,0,0,0,.63,1.64M34.42,18.55a1.76,1.76,0,0,0-.11,1.34,1.73,1.73,0,0,0,1-.82,3,3,0,0,0,.22-1.57,2.84,2.84,0,0,0-1.16,1.05m8.31,8.18A3.21,3.21,0,0,0,41,27a3.3,3.3,0,0,0,1.49.91,1.89,1.89,0,0,0,1.42-.35,1.9,1.9,0,0,0-1.2-.85M40.4,29.2a3.36,3.36,0,0,0-.17-1.75,3.22,3.22,0,0,0-1,1.44,2,2,0,0,0,.23,1.47,2,2,0,0,0,.93-1.16m1,2.15a3.24,3.24,0,0,0-.52-1.67,3.23,3.23,0,0,0-.68,1.61,2,2,0,0,0,.54,1.39,1.92,1.92,0,0,0,.66-1.33m.35-6.21a3.22,3.22,0,0,0-1.63.6,3.27,3.27,0,0,0,1.61.63,1.91,1.91,0,0,0,1.35-.6,1.93,1.93,0,0,0-1.33-.63m-2.21,2.21a3.38,3.38,0,0,0-.17-1.75,3.29,3.29,0,0,0-1,1.44,1.93,1.93,0,0,0,.23,1.47,2,2,0,0,0,.93-1.16m1.83-12.74a3.26,3.26,0,0,0-.1,1.78,2,2,0,0,0,1,1.14A2.05,2.05,0,0,0,42.41,16a3.34,3.34,0,0,0-1.06-1.41m-2.46,10.7a2.82,2.82,0,0,0-.14-1.5A2.84,2.84,0,0,0,37.9,25a1.67,1.67,0,0,0,.21,1.26,1.65,1.65,0,0,0,.78-1M37,43.51a1.76,1.76,0,0,0,.81-1.08,3,3,0,0,0-.19-1.56,2.84,2.84,0,0,0-.86,1.32A1.81,1.81,0,0,0,37,43.51m-1.36,4.17a2.34,2.34,0,0,0,1.1.62,1.78,1.78,0,0,0,1.14-.19,1.41,1.41,0,0,0-.89-.58,3,3,0,0,0-1.35.15m-1.69-1.87a3.5,3.5,0,0,0,1.38,1.26A2,2,0,0,0,36.89,47a2.11,2.11,0,0,0-1.1-1.14,3.4,3.4,0,0,0-1.86,0m4.37-2.16a1.6,1.6,0,0,0,.8.93,1.64,1.64,0,0,0,.14-1.22,2.61,2.61,0,0,0-.87-1.16,2.76,2.76,0,0,0-.07,1.45m-2.25-3.11a1.67,1.67,0,0,0,.52,1.18,1.7,1.7,0,0,0,.51-1.19,2.76,2.76,0,0,0-.53-1.42,2.81,2.81,0,0,0-.5,1.43m4.33,4.22A1.75,1.75,0,0,0,41.44,44a3,3,0,0,0,.25-1.54,2.81,2.81,0,0,0-1.18,1,1.77,1.77,0,0,0-.13,1.32m-1.92,1.13a1.58,1.58,0,0,0,1.1.51,1.6,1.6,0,0,0-.36-1.17,2.6,2.6,0,0,0-1.25-.7,2.78,2.78,0,0,0,.51,1.36m1.28-3.24a2,2,0,0,0,.17-1.44,3.15,3.15,0,0,0-1-1.36,3.17,3.17,0,0,0-.09,1.71,1.88,1.88,0,0,0,.94,1.09m-5.29.53A2,2,0,0,0,36,43.09,2.08,2.08,0,0,0,34.9,42a3.33,3.33,0,0,0-1.85,0,3.5,3.5,0,0,0,1.4,1.23m-10-.33a1.91,1.91,0,0,0,.77,1.26,1.93,1.93,0,0,0,.41-1.43,3.25,3.25,0,0,0-.82-1.55,3.28,3.28,0,0,0-.36,1.72m1.82-4.16a3.2,3.2,0,0,0-1.71.2,3.23,3.23,0,0,0,1.43,1,1.89,1.89,0,0,0,1.43-.27,1.92,1.92,0,0,0-1.15-.91m2.92,2a1.86,1.86,0,0,0,.16-1.39,3,3,0,0,0-1-1.31,3,3,0,0,0-.09,1.64,1.84,1.84,0,0,0,.91,1.06M30.51,42a1.83,1.83,0,0,0,.37-1.35,3,3,0,0,0-.78-1.44,3.11,3.11,0,0,0-.33,1.61A1.87,1.87,0,0,0,30.51,42m4.91-.46a2,2,0,0,0-.58-1.41,3.26,3.26,0,0,0-1.63-.7A3.34,3.34,0,0,0,34,41a2,2,0,0,0,1.42.5m-.17,2.63a3.42,3.42,0,0,0-1.8-.46,3.61,3.61,0,0,0,1.08,1.54,2.06,2.06,0,0,0,1.54.28,2.1,2.1,0,0,0-.82-1.36m-2.86-1.74a3.08,3.08,0,0,0-.52-1.56,3.13,3.13,0,0,0-.61,1.52,1.86,1.86,0,0,0,.52,1.3,1.86,1.86,0,0,0,.61-1.26m9.3-.8a2.93,2.93,0,0,0,.07-1.52,2.78,2.78,0,0,0-1,1.1,1.76,1.76,0,0,0,0,1.3,1.77,1.77,0,0,0,.95-.88M28.63,22.78a3,3,0,0,0,.56,1.46,1.7,1.7,0,0,0,1.2.55,1.76,1.76,0,0,0-.4-1.27,2.77,2.77,0,0,0-1.36-.74m3.52,8.48a1.81,1.81,0,0,0,.38,1.31,1.8,1.8,0,0,0,.71-1.17,3,3,0,0,0-.34-1.57,3.08,3.08,0,0,0-.75,1.43m.23-3.5a2.81,2.81,0,0,0-1.55.09,2.86,2.86,0,0,0,1.24.95,1.68,1.68,0,0,0,1.3-.16,1.71,1.71,0,0,0-1-.88m2.25,1.73a2.81,2.81,0,0,0-1.55.09,2.87,2.87,0,0,0,1.24.94,1.63,1.63,0,0,0,1.3-.16,1.71,1.71,0,0,0-1-.87m1.92,4.93a1.53,1.53,0,0,0,.44,1.1,1.61,1.61,0,0,0,.52-1.07,2.66,2.66,0,0,0-.43-1.33,2.69,2.69,0,0,0-.53,1.3m-1.12-.85a1.54,1.54,0,0,0,.44,1.09,1.53,1.53,0,0,0,.52-1.07A2.55,2.55,0,0,0,36,32.27a2.64,2.64,0,0,0-.53,1.3m-1.76-1a1.84,1.84,0,0,0,.62,1.21,1.78,1.78,0,0,0,.48-1.28A3,3,0,0,0,34.14,31a3,3,0,0,0-.47,1.55M29.42,24.7a3,3,0,0,0-.74,1.43,1.78,1.78,0,0,0,.37,1.31,1.8,1.8,0,0,0,.71-1.16,3,3,0,0,0-.34-1.58M31,31.47a1.76,1.76,0,0,0,.71-1.16,3,3,0,0,0-.34-1.57,3,3,0,0,0-.75,1.42A1.81,1.81,0,0,0,31,31.47M29.52,27.8a1.79,1.79,0,0,0,.38,1.31A1.76,1.76,0,0,0,30.61,28a3,3,0,0,0-.34-1.57,3,3,0,0,0-.75,1.42m-3.43,9.47A1.75,1.75,0,0,0,26.25,36a2.77,2.77,0,0,0-.9-1.19,2.84,2.84,0,0,0-.09,1.5,1.71,1.71,0,0,0,.83,1m-2.24-2.41a2.89,2.89,0,0,0-.08,1.5,1.71,1.71,0,0,0,.83,1,1.75,1.75,0,0,0,.16-1.28,2.83,2.83,0,0,0-.91-1.19m-1.67-1.09a3.14,3.14,0,0,0-.09,1.64,1.85,1.85,0,0,0,.9,1,1.86,1.86,0,0,0,.17-1.38,3,3,0,0,0-1-1.3m2.87-.51a1.76,1.76,0,0,0-1.26-.51,3,3,0,0,0-1.49.62,2.93,2.93,0,0,0,1.53.51,1.76,1.76,0,0,0,1.22-.62M35.87,32a1.68,1.68,0,0,0,1.3-.16,1.74,1.74,0,0,0-1-.88,2.83,2.83,0,0,0-1.54.1,2.81,2.81,0,0,0,1.23.94m-14.76.13a3,3,0,0,0,1.53.5A1.77,1.77,0,0,0,23.86,32a1.75,1.75,0,0,0-1.26-.52,3,3,0,0,0-1.49.63m6.2-6.44a1.94,1.94,0,0,0-.47-1.41,3.16,3.16,0,0,0-1.53-.8A3.32,3.32,0,0,0,26,25.11a1.91,1.91,0,0,0,1.34.59m15,22.22a1.24,1.24,0,0,0-.48.86,1.33,1.33,0,0,0,1-.21,2.05,2.05,0,0,0,.63-1,2.22,2.22,0,0,0-1.14.33m-.64-1.27a1.41,1.41,0,0,0-.32,1.1,1.65,1.65,0,0,0,1.11-.48A2.31,2.31,0,0,0,43,46a2.67,2.67,0,0,0-1.27.65M41.2,45a1.72,1.72,0,0,0-.13,1.32,1.74,1.74,0,0,0,1-.79A2.92,2.92,0,0,0,42.37,44a2.75,2.75,0,0,0-1.17,1M26.58,27.16a1.71,1.71,0,0,0,1.28-.33,1.74,1.74,0,0,0-1.09-.75,2.85,2.85,0,0,0-1.53.28,2.9,2.9,0,0,0,1.34.8m20.84-4a3.13,3.13,0,0,0,.39,1.64A1.84,1.84,0,0,0,49,25.6a1.94,1.94,0,0,0-.23-1.42,3.12,3.12,0,0,0-1.35-1M21,29.8a2,2,0,0,0-1.2-.95,3.26,3.26,0,0,0-1.77.21,3.28,3.28,0,0,0,1.48,1A2,2,0,0,0,21,29.8m-.62-1.07a1.74,1.74,0,0,0-.1-1.3,2.77,2.77,0,0,0-1.14-1,2.91,2.91,0,0,0,.22,1.52,1.69,1.69,0,0,0,1,.79m9-10.86a1.66,1.66,0,0,0,.26-1.22,2.75,2.75,0,0,0-.77-1.25,2.8,2.8,0,0,0-.21,1.46,1.63,1.63,0,0,0,.72,1M21.71,36a2.05,2.05,0,0,0-.52-1.48,3.34,3.34,0,0,0-1.63-.83,3.53,3.53,0,0,0,.72,1.71,2,2,0,0,0,1.43.6M21,31.71a2,2,0,0,0,1.31-.85,2,2,0,0,0-1.49-.42,3.39,3.39,0,0,0-1.61.89,3.35,3.35,0,0,0,1.79.38m.94,14.54a1.6,1.6,0,0,0-.36-1.17,2.58,2.58,0,0,0-1.25-.68,2.66,2.66,0,0,0,.52,1.34,1.56,1.56,0,0,0,1.09.51m.81-17.79A1.59,1.59,0,0,0,23,27.31a2.64,2.64,0,0,0-.71-1.21,2.63,2.63,0,0,0-.23,1.38,1.53,1.53,0,0,0,.66,1m-.31,8.73a1.77,1.77,0,0,0-1.17-.67,3,3,0,0,0-1.53.42,2.88,2.88,0,0,0,1.43.7,1.71,1.71,0,0,0,1.27-.45M27.17,24a1.66,1.66,0,0,0,.26-1.22,2.75,2.75,0,0,0-.77-1.25A2.77,2.77,0,0,0,26.45,23a1.63,1.63,0,0,0,.72,1m.91-3.39a1.94,1.94,0,0,0,1.51,0,2,2,0,0,0-1-1.14,3.16,3.16,0,0,0-1.77-.11,3.23,3.23,0,0,0,1.27,1.25M29,19a2,2,0,0,0-.48-1.45A3.24,3.24,0,0,0,27,16.72a3.39,3.39,0,0,0,.68,1.67A2,2,0,0,0,29,19M25,24.37a1.59,1.59,0,0,0-.17-1.18,2.55,2.55,0,0,0-1.1-.85A2.66,2.66,0,0,0,24,23.72a1.51,1.51,0,0,0,1,.65m1-1.16a1.84,1.84,0,0,0,.18-1.36,2.94,2.94,0,0,0-.95-1.29,3,3,0,0,0-.1,1.61,1.78,1.78,0,0,0,.87,1m-1.3,5.45a2,2,0,0,0,.08-1.49,3.24,3.24,0,0,0-1.14-1.32,3.33,3.33,0,0,0,0,1.76,1.94,1.94,0,0,0,1,1.05m-.92,2.16a1.89,1.89,0,0,0,.47-1.37,3.15,3.15,0,0,0-.73-1.55A3.19,3.19,0,0,0,23,29.55a1.89,1.89,0,0,0,.7,1.27m1.05-5a1.5,1.5,0,0,0,1.15-.26,1.55,1.55,0,0,0-1-.7,2.6,2.6,0,0,0-1.38.21,2.63,2.63,0,0,0,1.18.75m-2.33,4a2.05,2.05,0,0,0-.21-1.51,3.32,3.32,0,0,0-1.41-1.1A3.46,3.46,0,0,0,21.21,29a2,2,0,0,0,1.25.85m50,12.36A2,2,0,0,0,73,43.63a3.24,3.24,0,0,0,1.56.8,3.4,3.4,0,0,0-.67-1.63,1.94,1.94,0,0,0-1.36-.59M74.55,42a2.23,2.23,0,0,0,.54,1.59,3.53,3.53,0,0,0,1.73.9,3.63,3.63,0,0,0-.74-1.83A2.15,2.15,0,0,0,74.55,42M71.4,44.77a2,2,0,0,0,1.33.79,3.36,3.36,0,0,0,1.76-.45,3.35,3.35,0,0,0-1.63-.82,2,2,0,0,0-1.46.48M40.55,17.83a1.87,1.87,0,0,0,1.34.53A1.92,1.92,0,0,0,41.38,17a3,3,0,0,0-1.54-.72,3.3,3.3,0,0,0,.71,1.56M80.23,39.21a2,2,0,0,0-1.24.93,2,2,0,0,0,1.51.31,3.38,3.38,0,0,0,1.52-1,3.31,3.31,0,0,0-1.79-.24m-2.17,2.16a2,2,0,0,0,1.24.8A3.12,3.12,0,0,0,81,41.8,3.19,3.19,0,0,0,79.47,41a1.89,1.89,0,0,0-1.41.41m-5.73,6a2,2,0,0,0-1.07,1.1,2,2,0,0,0,1.52.07,3.31,3.31,0,0,0,1.34-1.2,3.27,3.27,0,0,0-1.79,0m-42.95,2a1.79,1.79,0,0,0,.26-1.09.72.72,0,0,0-.78.25,2.73,2.73,0,0,0-.37,1.23,1.2,1.2,0,0,0,.89-.39m1.28-.52a1.79,1.79,0,0,0,.26-1.09.74.74,0,0,0-.78.25,2.73,2.73,0,0,0-.37,1.23,1.17,1.17,0,0,0,.89-.39m6.81,5.31A1.52,1.52,0,0,0,38,53.11a1.63,1.63,0,0,0-1.17.35,2.63,2.63,0,0,0-.7,1.23,2.7,2.7,0,0,0,1.35-.5m-1.91.51a1.58,1.58,0,0,0,.53-1.09,1.65,1.65,0,0,0-1.18.35,2.58,2.58,0,0,0-.7,1.23,2.75,2.75,0,0,0,1.35-.49m-2.5.41a1.55,1.55,0,0,0,.71-1,1.65,1.65,0,0,0-1.21.13,2.5,2.5,0,0,0-.92,1.08,2.65,2.65,0,0,0,1.42-.24m-2-.38a1.67,1.67,0,0,0,.83-1,1.65,1.65,0,0,0-1.28,0,2.82,2.82,0,0,0-1,1.1,2.87,2.87,0,0,0,1.5-.14m-4.4-2.88a1.76,1.76,0,0,0-1.36-.28,3,3,0,0,0-1.37.9,3,3,0,0,0,1.62.22,1.83,1.83,0,0,0,1.11-.84m-1.13-.7a1.56,1.56,0,0,0-.88-.84,2.61,2.61,0,0,0-1.42,0,2.59,2.59,0,0,0,1.1.91,1.54,1.54,0,0,0,1.2-.1m2.75,1.29a1.74,1.74,0,0,0-1.35.13,3,3,0,0,0-1,1.22,2.92,2.92,0,0,0,1.57-.25,1.83,1.83,0,0,0,.81-1.1m41-2.53a2.06,2.06,0,0,0,.49,1.48,3.35,3.35,0,0,0,1.62.84,3.5,3.5,0,0,0-.7-1.7,2,2,0,0,0-1.41-.62m3-.57a2,2,0,0,0-1.57.1,2.07,2.07,0,0,0,1.12,1.13,3.43,3.43,0,0,0,1.86,0,3.47,3.47,0,0,0-1.41-1.24M23.09,47.5a1.64,1.64,0,0,0-.88-.84,2.57,2.57,0,0,0-1.42,0,2.6,2.6,0,0,0,1.1.9,1.54,1.54,0,0,0,1.2-.1m5.59,5.66a2.8,2.8,0,0,0-1.06,1.1,2.76,2.76,0,0,0,1.5-.14,1.67,1.67,0,0,0,.83-1,1.63,1.63,0,0,0-1.27,0M78.05,42.23a2.17,2.17,0,0,0-1.61-.4,2.18,2.18,0,0,0,.79,1.48,3.6,3.6,0,0,0,1.86.6,3.69,3.69,0,0,0-1-1.68m-48-22.3a1.9,1.9,0,0,0,.7-1.28A3.12,3.12,0,0,0,30.35,17a3.18,3.18,0,0,0-.72,1.55,1.94,1.94,0,0,0,.46,1.38m17.75-3.09a1.81,1.81,0,0,0,.39-1.32,3,3,0,0,0-.75-1.43,3.06,3.06,0,0,0-.34,1.58,1.81,1.81,0,0,0,.7,1.17m-4.16,1.63a1.9,1.9,0,0,0,.37,1.39,1.89,1.89,0,0,0,.78-1.21A3.26,3.26,0,0,0,44.5,17a3.18,3.18,0,0,0-.82,1.5m1,1.37a1.63,1.63,0,0,0,.25,1.2,1.59,1.59,0,0,0,.71-1,2.72,2.72,0,0,0-.2-1.43,2.72,2.72,0,0,0-.76,1.22m1.19-5.53a1.86,1.86,0,0,0,.1,1.37,1.76,1.76,0,0,0,.93-1,3,3,0,0,0,0-1.62,3,3,0,0,0-1,1.24m2.31,0a1.84,1.84,0,0,0,.08-1.38,3,3,0,0,0-1.06-1.21,3.09,3.09,0,0,0,0,1.62,1.8,1.8,0,0,0,1,1m.18-2a2.06,2.06,0,0,0,.19-1.52A3.28,3.28,0,0,0,47.48,9.3a3.34,3.34,0,0,0-.1,1.8,2,2,0,0,0,1,1.16m-2.47,6.92a2.58,2.58,0,0,0,.6,1.19,1.44,1.44,0,0,0,1,.35,1.45,1.45,0,0,0-.44-1,2.46,2.46,0,0,0-1.21-.51m-.31,6.92a1.57,1.57,0,0,0,1-.66A2.65,2.65,0,0,0,46.9,24a2.65,2.65,0,0,0-1.14.86,1.64,1.64,0,0,0-.18,1.21m4.21,2.61a1.67,1.67,0,0,0,1.25.08,1.6,1.6,0,0,0-.77-1,2.76,2.76,0,0,0-1.46-.19,2.7,2.7,0,0,0,1,1.09M49,27.22a1.87,1.87,0,0,0,1.36.38,1.88,1.88,0,0,0-.62-1.28,3,3,0,0,0-1.58-.56A3.23,3.23,0,0,0,49,27.22M27,40.14a3.15,3.15,0,0,0-1.67.42,3.16,3.16,0,0,0,1.54.78,1.88,1.88,0,0,0,1.39-.46A1.94,1.94,0,0,0,27,40.14M46.71,35a2.85,2.85,0,0,0,.75-1.34A2.83,2.83,0,0,0,46,34.2a1.69,1.69,0,0,0-.55,1.18A1.63,1.63,0,0,0,46.71,35m.4-1.93a2.85,2.85,0,0,0,.58-1.42,2.85,2.85,0,0,0-1.35.7,1.75,1.75,0,0,0-.41,1.23,1.68,1.68,0,0,0,1.18-.51M47.53,31a2.94,2.94,0,0,0,.33-1.49,2.74,2.74,0,0,0-1.21.91,1.71,1.71,0,0,0-.2,1.28,1.72,1.72,0,0,0,1.08-.7m0-2.06a2.91,2.91,0,0,0,.34-1.5,2.89,2.89,0,0,0-1.22.91,1.74,1.74,0,0,0-.2,1.29,1.69,1.69,0,0,0,1.08-.7M46.63,12a3.28,3.28,0,0,0-.34-1.7,3.28,3.28,0,0,0-.84,1.52,2,2,0,0,0,.39,1.43A2,2,0,0,0,46.63,12M45.55,22.62a1.59,1.59,0,0,0,.71-1,2.77,2.77,0,0,0-.2-1.44,2.71,2.71,0,0,0-.76,1.23,1.59,1.59,0,0,0,.25,1.19m1.06.87a2.67,2.67,0,0,0,.32-1.4,2.72,2.72,0,0,0-1.15.86,1.64,1.64,0,0,0-.18,1.21,1.56,1.56,0,0,0,1-.67m.66,3.37a2.87,2.87,0,0,0,.34-1.49,2.83,2.83,0,0,0-1.21.91,1.66,1.66,0,0,0-.2,1.28,1.63,1.63,0,0,0,1.07-.7m-.74-11.21a2.71,2.71,0,0,0-.23,1.43,1.6,1.6,0,0,0,.69,1,1.66,1.66,0,0,0,.28-1.19,2.66,2.66,0,0,0-.74-1.24m-9.6,1.24a1.82,1.82,0,0,0,1-1A3,3,0,0,0,38,14.28a3.06,3.06,0,0,0-1.13,1.2,1.87,1.87,0,0,0,0,1.41m.23-2.9a2.53,2.53,0,0,0-.26-1.3,2.49,2.49,0,0,0-.63,1.16,1.48,1.48,0,0,0,.29,1.09,1.52,1.52,0,0,0,.6-.95m-2.33,3a2.79,2.79,0,0,0-.26-1.49,2.77,2.77,0,0,0-.75,1.3,1.7,1.7,0,0,0,.3,1.25A1.71,1.71,0,0,0,34.83,17m1.06-1a2,2,0,0,0,.18-1.48A3.27,3.27,0,0,0,35,13.11a3.36,3.36,0,0,0-.09,1.76,1.91,1.91,0,0,0,1,1.12M32.18,18.3a1.47,1.47,0,0,0-.09-1.12,2.47,2.47,0,0,0-1-.86,2.49,2.49,0,0,0,.2,1.31,1.44,1.44,0,0,0,.88.67m13.08-3.84A1.9,1.9,0,0,0,45.35,13a3.13,3.13,0,0,0-1.09-1.28,3.22,3.22,0,0,0,0,1.68,1.86,1.86,0,0,0,1,1M33.37,16.65a1.61,1.61,0,0,0,.26-1.22,2.68,2.68,0,0,0-.77-1.25,2.77,2.77,0,0,0-.21,1.46,1.63,1.63,0,0,0,.72,1m.14,2.63a1.78,1.78,0,0,0,.12-1.34,2.92,2.92,0,0,0-1-1.23,3,3,0,0,0,0,1.58,1.74,1.74,0,0,0,.9,1m9.57-1.15A1.93,1.93,0,0,0,44,17a3.29,3.29,0,0,0-.2-1.74,3.23,3.23,0,0,0-1,1.45,2,2,0,0,0,.27,1.46m1.71-2.22a1.59,1.59,0,0,0,0-1.19,2.52,2.52,0,0,0-.94-1,2.65,2.65,0,0,0,.06,1.4,1.56,1.56,0,0,0,.85.82m-2-.35a2,2,0,0,0,.6-1.34,3.25,3.25,0,0,0-.59-1.62,3.2,3.2,0,0,0-.59,1.62,1.92,1.92,0,0,0,.58,1.34m-5.62,2.76a1.73,1.73,0,0,0,1.21-.57A2.92,2.92,0,0,0,39,16.27a2.85,2.85,0,0,0-1.38.76,1.77,1.77,0,0,0-.39,1.29M37.51,20a1.79,1.79,0,0,0,1.25-.58,3.1,3.1,0,0,0,.58-1.53,3,3,0,0,0-1.42.79A1.86,1.86,0,0,0,37.51,20m4.21-5.88A1.62,1.62,0,0,0,42.06,13a2.68,2.68,0,0,0-.67-1.28,2.76,2.76,0,0,0-.3,1.41,1.59,1.59,0,0,0,.63,1m-1.24-.7a1.59,1.59,0,0,0,.34-1.17A2.68,2.68,0,0,0,40.15,11a2.73,2.73,0,0,0-.31,1.41,1.58,1.58,0,0,0,.64,1M40.66,16a1.89,1.89,0,0,0,0-1.46,3.17,3.17,0,0,0-1.16-1.26A3.26,3.26,0,0,0,39.61,15a1.9,1.9,0,0,0,1,1M25,48.24a1.73,1.73,0,0,0-1.22-.59,2.93,2.93,0,0,0-1.51.54,3,3,0,0,0,1.49.58A1.78,1.78,0,0,0,25,48.24M71.84,23.7A1.9,1.9,0,0,0,71.23,25a1.87,1.87,0,0,0,1.38-.42,3.21,3.21,0,0,0,.82-1.51,3,3,0,0,0-1.59.61m-.34-.53a3.15,3.15,0,0,0,.81-1.51,3,3,0,0,0-1.58.61,1.9,1.9,0,0,0-.61,1.32,1.83,1.83,0,0,0,1.38-.42M61.56,24.5A1.71,1.71,0,0,0,62.77,24a2.92,2.92,0,0,0,.56-1.48,2.88,2.88,0,0,0-1.37.75,1.78,1.78,0,0,0-.4,1.28m7.3-1.79a1.94,1.94,0,0,0-.27,1.44,1.94,1.94,0,0,0,1.24-.75,3.37,3.37,0,0,0,.43-1.67,3.1,3.1,0,0,0-1.4,1m-2.37-3.15A1.92,1.92,0,0,0,66.22,21a1.9,1.9,0,0,0,1.23-.75,3.29,3.29,0,0,0,.44-1.67,3.16,3.16,0,0,0-1.4,1M63.35,24a1.75,1.75,0,0,0,1.21-.56A3,3,0,0,0,65.12,22a2.8,2.8,0,0,0-1.37.76,1.78,1.78,0,0,0-.4,1.28m.54-3a1.9,1.9,0,0,0-1,1.07,1.9,1.9,0,0,0,1.46.05,3.2,3.2,0,0,0,1.27-1.19,3.11,3.11,0,0,0-1.72.07m5.57-1.19a3.22,3.22,0,0,0,.83-1.51,3.11,3.11,0,0,0-1.59.6,1.89,1.89,0,0,0-.63,1.31,1.89,1.89,0,0,0,1.39-.4m-4.51,6a1.94,1.94,0,0,0,.37,1.42,1.93,1.93,0,0,0,.79-1.23,3.24,3.24,0,0,0-.32-1.69,3.25,3.25,0,0,0-.84,1.5m2.9-3a2.79,2.79,0,0,0-1.48.05,1.71,1.71,0,0,0-.86.93,1.63,1.63,0,0,0,1.26,0,2.76,2.76,0,0,0,1.08-1m-.23-.77a3.11,3.11,0,0,0,1.07-1.28,3,3,0,0,0-1.64.26,1.9,1.9,0,0,0-.84,1.15,1.89,1.89,0,0,0,1.41-.13m5.64,5.8a3.32,3.32,0,0,0-.05-1.76,3.23,3.23,0,0,0-1.08,1.37A2,2,0,0,0,72.26,29a1.91,1.91,0,0,0,1-1.1M67.86,25a3.15,3.15,0,0,0,.24-1.68,3.11,3.11,0,0,0-1.25,1.12,1.91,1.91,0,0,0-.12,1.43A1.83,1.83,0,0,0,67.86,25M71,24.24a3.18,3.18,0,0,0-1.77.07,2,2,0,0,0-1,1.1,2,2,0,0,0,1.5.05A3.34,3.34,0,0,0,71,24.24m-.76,5.42A2.9,2.9,0,0,0,70,28.11a2.9,2.9,0,0,0-.83,1.31,1.75,1.75,0,0,0,.26,1.3,1.73,1.73,0,0,0,.78-1.06m-8.09-14a1.9,1.9,0,0,0,1-1.07,3.13,3.13,0,0,0,0-1.71A3.13,3.13,0,0,0,62,14.22a1.9,1.9,0,0,0,.12,1.45m-1.6,2a2.67,2.67,0,0,0-.23-1.36,2.54,2.54,0,0,0-.7,1.19,1.6,1.6,0,0,0,.27,1.14,1.57,1.57,0,0,0,.66-1M57.67,18.8a1.47,1.47,0,0,0,1.07-.33,2.56,2.56,0,0,0,.64-1.18,2.49,2.49,0,0,0-1.24.47,1.52,1.52,0,0,0-.47,1M61.16,17a1.93,1.93,0,0,0,.52-1.36A3.26,3.26,0,0,0,61,14a3.29,3.29,0,0,0-.5,1.65,1.88,1.88,0,0,0,.66,1.3m-.81-1.44a2.92,2.92,0,0,0-1.55.41,1.8,1.8,0,0,0-.71,1.18,1.74,1.74,0,0,0,1.34-.25,3.06,3.06,0,0,0,.92-1.34m-1.1-4.7a3.29,3.29,0,0,0-.35-1.75,3.28,3.28,0,0,0-.85,1.56,2,2,0,0,0,.39,1.46,2,2,0,0,0,.81-1.27m-.66,4.34a1.77,1.77,0,0,0,1.35-.25,3.06,3.06,0,0,0,.92-1.34A2.94,2.94,0,0,0,59.3,14a1.8,1.8,0,0,0-.71,1.18m.2-1.65a1.82,1.82,0,0,0,1.27-.59,3,3,0,0,0,.59-1.56,3,3,0,0,0-1.45.8,1.87,1.87,0,0,0-.41,1.35M68.26,26.1a1.83,1.83,0,0,0-1.18.74,1.81,1.81,0,0,0,1.33.4,3.05,3.05,0,0,0,1.45-.77,3,3,0,0,0-1.6-.37m-2.5-8.39a3.39,3.39,0,0,0,0-1.81,3.43,3.43,0,0,0-1.14,1.4,2.05,2.05,0,0,0,.13,1.52,2,2,0,0,0,1-1.11m-2.52-.6a2.59,2.59,0,0,0-1.3.55,1.64,1.64,0,0,0-.48,1.12,1.52,1.52,0,0,0,1.14-.39,2.67,2.67,0,0,0,.64-1.28m3.94.48a3,3,0,0,0,.56-1.48,2.94,2.94,0,0,0-1.37.76A1.75,1.75,0,0,0,66,18.15a1.73,1.73,0,0,0,1.2-.56m-.62.88a3.24,3.24,0,0,0-1.61.65,2,2,0,0,0-.59,1.35A1.88,1.88,0,0,0,65.75,20a3.24,3.24,0,0,0,.81-1.55m-5.4,1.87a1.87,1.87,0,0,0,.18,1.39,1.85,1.85,0,0,0,.9-1.07A3.14,3.14,0,0,0,62.15,19a3,3,0,0,0-1,1.32M61.58,14a2,2,0,0,0,.51-1.37,3.13,3.13,0,0,0-.67-1.57,3.13,3.13,0,0,0-.5,1.64,1.88,1.88,0,0,0,.66,1.3m2.22,5.14a3.12,3.12,0,0,0-.1-1.65,3.1,3.1,0,0,0-1,1.32,1.88,1.88,0,0,0,.17,1.39,1.81,1.81,0,0,0,.91-1.06m-1.1-3.42a1.76,1.76,0,0,0-.58,1.19,1.69,1.69,0,0,0,1.27-.36,2.89,2.89,0,0,0,.77-1.35,2.78,2.78,0,0,0-1.46.52M73.58,33.36a1.61,1.61,0,0,0-1.15.39,1.6,1.6,0,0,0,1.06.6A2.62,2.62,0,0,0,74.86,34a2.58,2.58,0,0,0-1.28-.62m1.83,7a3.53,3.53,0,0,0,1.24-1.43,3.41,3.41,0,0,0-1.86.27,2.13,2.13,0,0,0-1,1.29,2.08,2.08,0,0,0,1.59-.13m1.3-2.68a3.27,3.27,0,0,0,1.72-.24,3.2,3.2,0,0,0-1.47-1,1.92,1.92,0,0,0-1.44.3,2,2,0,0,0,1.19.89m-3.07-.42a1.9,1.9,0,0,0,1,1,3.1,3.1,0,0,0,1.71,0,3.15,3.15,0,0,0-1.29-1.13,1.84,1.84,0,0,0-1.45.08m-2.31,3.12a2,2,0,0,0,1.59-.15,3.47,3.47,0,0,0,1.21-1.46,3.51,3.51,0,0,0-1.86.31,2.17,2.17,0,0,0-.94,1.3M78,40.21a3.54,3.54,0,0,0,1.25-1.47,3.46,3.46,0,0,0-1.89.3,2.16,2.16,0,0,0-1,1.32A2.08,2.08,0,0,0,78,40.21m0-7.75A1.91,1.91,0,0,0,79.36,32a3.25,3.25,0,0,0,.81-1.51,3,3,0,0,0-1.58.61A2,2,0,0,0,78,32.46m0-1.15a3.27,3.27,0,0,0,.84-1.5,3,3,0,0,0-1.6.6,1.91,1.91,0,0,0-.62,1.31A1.85,1.85,0,0,0,78,31.31m2.24,3.91A3.31,3.31,0,0,0,78.4,35a2,2,0,0,0-1.23.93,2,2,0,0,0,1.5.31,3.31,3.31,0,0,0,1.52-1m-7.46-.87a2.85,2.85,0,0,0-1.56-.23,1.76,1.76,0,0,0-1.08.79,1.71,1.71,0,0,0,1.31.29,2.92,2.92,0,0,0,1.33-.85m-2.24,2a1.78,1.78,0,0,0-.09,1.35,1.69,1.69,0,0,0,1-.83,2.87,2.87,0,0,0,.22-1.57,2.9,2.9,0,0,0-1.17,1m7.88-1.81A2,2,0,0,0,80,34.44,3.53,3.53,0,0,0,81.2,33a3.46,3.46,0,0,0-1.86.28,2.12,2.12,0,0,0-1,1.28M57.6,13.64a2,2,0,0,0,.18-1.49,3.36,3.36,0,0,0-1.06-1.4,3.34,3.34,0,0,0-.09,1.76,1.94,1.94,0,0,0,1,1.13M73.34,36.12a3,3,0,0,0,.56-1.48,2.85,2.85,0,0,0-1.38.76,1.77,1.77,0,0,0-.39,1.29,1.73,1.73,0,0,0,1.21-.57m3.92-3.63a3.31,3.31,0,0,0-1.83-.27,2.07,2.07,0,0,0-1.27.93,2.05,2.05,0,0,0,1.54.34,3.39,3.39,0,0,0,1.56-1m-1.77,2.92a3.48,3.48,0,0,0,.66-1.76,3.41,3.41,0,0,0-1.62.9,2.11,2.11,0,0,0-.47,1.52,2,2,0,0,0,1.43-.66m2.25-.57a3.43,3.43,0,0,0,.71-1.69,3.31,3.31,0,0,0-1.62.81,2.11,2.11,0,0,0-.51,1.47,2,2,0,0,0,1.42-.59m-10-4.35a1.81,1.81,0,0,0,.13,1.32,1.77,1.77,0,0,0,.89-1,2.92,2.92,0,0,0,0-1.56,3,3,0,0,0-1,1.22M64.2,37.9a3.37,3.37,0,0,0-1.85.29,2.13,2.13,0,0,0-1,1.29A2.08,2.08,0,0,0,63,39.34,3.56,3.56,0,0,0,64.2,37.9m.89-2.11a1.71,1.71,0,0,0,.66-1.14,2.92,2.92,0,0,0-.37-1.52,2.88,2.88,0,0,0-.69,1.4,1.73,1.73,0,0,0,.4,1.26m9.44-3.73a2.2,2.2,0,0,0,1.56-.72,3.75,3.75,0,0,0,.72-1.9,3.65,3.65,0,0,0-1.77,1,2.34,2.34,0,0,0-.51,1.65m-13.12,8a2.13,2.13,0,0,0-.95,1.29A2.05,2.05,0,0,0,62,41.23a3.41,3.41,0,0,0,1.22-1.44,3.42,3.42,0,0,0-1.85.3m5.84-7.91A2.94,2.94,0,0,0,67,30.63,2.83,2.83,0,0,0,66.21,32a1.72,1.72,0,0,0,.26,1.29,1.73,1.73,0,0,0,.78-1.06m-5,1.65a1.86,1.86,0,0,0-.58,1.26,1.78,1.78,0,0,0,1.32-.4,3,3,0,0,0,.78-1.43,2.91,2.91,0,0,0-1.52.57m-.13,2.52A2.19,2.19,0,0,0,61.81,38a2.09,2.09,0,0,0,1.4-.86,3.66,3.66,0,0,0,.5-1.9,3.56,3.56,0,0,0-1.59,1.12m4.34-5.56a3.07,3.07,0,0,0-1.64.1,1.85,1.85,0,0,0-.93,1,1.77,1.77,0,0,0,1.39,0,3.17,3.17,0,0,0,1.18-1.15m6.51.47a2.11,2.11,0,0,0,0,1.58,2,2,0,0,0,1.15-1.07,3.45,3.45,0,0,0,.11-1.85A3.33,3.33,0,0,0,73,31.26m1.25-2.92a1.94,1.94,0,0,0-1,1.1,2,2,0,0,0,1.47,0A3.35,3.35,0,0,0,76,28.24a3.21,3.21,0,0,0-1.74.1m-.67-.05A2,2,0,0,0,75,27.63a3.43,3.43,0,0,0,.65-1.73,3.42,3.42,0,0,0-1.6.88,2.11,2.11,0,0,0-.46,1.51m-7.44,1a1.82,1.82,0,0,0-1.19.74,1.83,1.83,0,0,0,1.33.4,3.08,3.08,0,0,0,1.45-.77,3,3,0,0,0-1.59-.37M74.67,25a3.3,3.3,0,0,0-.29-1.7,3.22,3.22,0,0,0-.87,1.49,1.91,1.91,0,0,0,.34,1.42A1.92,1.92,0,0,0,74.67,25m-7.3,2.73a1.78,1.78,0,0,0-1.17.74,1.78,1.78,0,0,0,1.33.39A3,3,0,0,0,69,28.08a3,3,0,0,0-1.6-.37m3.51-1.79a1.92,1.92,0,0,0-.6,1.32,1.86,1.86,0,0,0,1.38-.43,3.25,3.25,0,0,0,.81-1.51,3.13,3.13,0,0,0-1.59.62m-.25,2.63a1.76,1.76,0,0,0,.11,1.32,1.77,1.77,0,0,0,.9-1,2.87,2.87,0,0,0,0-1.55,2.82,2.82,0,0,0-1,1.2m-12.37-6.2a3,3,0,0,0-1.54.49,1.81,1.81,0,0,0-.64,1.22,1.75,1.75,0,0,0,1.33-.33,3.11,3.11,0,0,0,.85-1.38m7.66,21.81a1.89,1.89,0,0,0-.13,1.41,1.8,1.8,0,0,0,1.12-.84,3.2,3.2,0,0,0,.27-1.65,3.17,3.17,0,0,0-1.26,1.08m4.38-.68a2.09,2.09,0,0,0-.91,1.36,2.07,2.07,0,0,0,1.6-.23,3.58,3.58,0,0,0,1.18-1.53,3.46,3.46,0,0,0-1.87.4m-2.4.39a1.88,1.88,0,0,0-.42,1.36,1.82,1.82,0,0,0,1.27-.59,3.07,3.07,0,0,0,.59-1.56,3,3,0,0,0-1.44.79M61.72,48a1.74,1.74,0,0,0,.67,1.08,1.83,1.83,0,0,0,.27-1.26,2.93,2.93,0,0,0-.72-1.31A2.93,2.93,0,0,0,61.72,48m-1.46.57a1.75,1.75,0,0,0,.55,1.14,1.78,1.78,0,0,0,.4-1.22,2.91,2.91,0,0,0-.56-1.39,3.11,3.11,0,0,0-.39,1.47M62.86,47a1.87,1.87,0,0,0,.67,1.25A1.87,1.87,0,0,0,64,46.88a3.15,3.15,0,0,0-.69-1.53A3.27,3.27,0,0,0,62.86,47m4.9,5.1a3.39,3.39,0,0,0,1.62.83,3.5,3.5,0,0,0-.7-1.7,2,2,0,0,0-1.41-.62,2.09,2.09,0,0,0,.49,1.49m-3.61-6.37a1.91,1.91,0,0,0,.29,1.39,1.83,1.83,0,0,0,.82-1.15A3.11,3.11,0,0,0,65,44.27a3.13,3.13,0,0,0-.88,1.42m2.76,3.47a1.77,1.77,0,0,0,1.37-.25,3,3,0,0,0,1-1.36,3.06,3.06,0,0,0-1.59.41,1.85,1.85,0,0,0-.73,1.2m2.61-.46a1.84,1.84,0,0,0,1.28-.6,3.2,3.2,0,0,0,.59-1.57,3,3,0,0,0-1.45.8,1.9,1.9,0,0,0-.42,1.37M58.76,39.83a1.88,1.88,0,0,0,.13,1.39,1.8,1.8,0,0,0,.93-1,3,3,0,0,0,0-1.64,3.13,3.13,0,0,0-1,1.28m1.56-1.93a1.84,1.84,0,0,0,.13,1.38,1.84,1.84,0,0,0,.94-1,3.1,3.1,0,0,0,0-1.64,3,3,0,0,0-1,1.28m-5.38,3.81a2,2,0,0,0,.52-1.46,3.31,3.31,0,0,0-.73-1.65,3.42,3.42,0,0,0-.51,1.74,2.1,2.1,0,0,0,.72,1.37M68.62,33.6a1.47,1.47,0,0,0-.08,1.11,1.42,1.42,0,0,0,.87-.68,2.49,2.49,0,0,0,.18-1.31,2.44,2.44,0,0,0-1,.88m1.23-1.26a1.5,1.5,0,0,0-.08,1.12,1.46,1.46,0,0,0,.87-.69,2.46,2.46,0,0,0,.18-1.3,2.38,2.38,0,0,0-1,.87m-3.66,15a1.28,1.28,0,0,0-.91.45,1.26,1.26,0,0,0,.89.48,2,2,0,0,0,1.1-.44,2,2,0,0,0-1.08-.49m1.87-1.15a1.74,1.74,0,0,0-1.21.52,1.7,1.7,0,0,0,1.18.56,2.75,2.75,0,0,0,1.46-.51,2.85,2.85,0,0,0-1.43-.57m-6.34,5.85a2.6,2.6,0,0,0-1.37-.42,1.32,1.32,0,0,0,.61,1,4.42,4.42,0,0,0,1.58.58,2.37,2.37,0,0,0-.82-1.13m1.83-.59A2.64,2.64,0,0,0,62,51.24a1.56,1.56,0,0,0,.83,1,4.45,4.45,0,0,0,1.82.35,2.83,2.83,0,0,0-1.1-1.14m2.22-.65a2,2,0,0,0-1.56-.24,2.08,2.08,0,0,0,.86,1.34,3.37,3.37,0,0,0,1.81.42,3.48,3.48,0,0,0-1.11-1.52m4.61-5.56a1.74,1.74,0,0,0-1.21.52,1.75,1.75,0,0,0,1.19.57,2.86,2.86,0,0,0,1.46-.52,2.9,2.9,0,0,0-1.44-.57m-1.66-4.91A1.76,1.76,0,0,0,69,39a2.91,2.91,0,0,0-.88-1.32,2.92,2.92,0,0,0-.17,1.57,1.79,1.79,0,0,0,.82,1.07m.73-1.11a1.74,1.74,0,0,0,.6-1.21,3,3,0,0,0-.46-1.51A3,3,0,0,0,69,38a1.83,1.83,0,0,0,.48,1.26m1.92-7.7a2.09,2.09,0,0,0,0,1.58,2.07,2.07,0,0,0,1.15-1.06,3.48,3.48,0,0,0,.11-1.86,3.48,3.48,0,0,0-1.27,1.34M21.56,43a1.52,1.52,0,0,0,1.19.12,1.58,1.58,0,0,0-.7-1,2.63,2.63,0,0,0-1.4-.25A2.65,2.65,0,0,0,21.56,43M21,41.3a1.6,1.6,0,0,0,1.1.5,1.63,1.63,0,0,0-.37-1.17A2.58,2.58,0,0,0,20.43,40,2.71,2.71,0,0,0,21,41.3m1.85,1.14a2,2,0,0,0,1.29.8,2,2,0,0,0-.27-1.51,3.24,3.24,0,0,0-1.45-1,3.45,3.45,0,0,0,.43,1.76m1.68-2.13a3,3,0,0,0-.74-1.47,3.08,3.08,0,0,0-.38,1.6,1.89,1.89,0,0,0,.71,1.21,1.88,1.88,0,0,0,.41-1.34M28,43.43a2.89,2.89,0,0,0,1.32.82,1.66,1.66,0,0,0,1.27-.31,1.69,1.69,0,0,0-1.06-.76,2.83,2.83,0,0,0-1.53.25m.36-1.87a3.28,3.28,0,0,0-1.71.28,3.31,3.31,0,0,0,1.48.92,1.91,1.91,0,0,0,1.42-.34,1.9,1.9,0,0,0-1.19-.86m-4.5-3.47a1.88,1.88,0,0,0-1.38-.47,3.13,3.13,0,0,0-1.55.74,3.17,3.17,0,0,0,1.66.46,1.91,1.91,0,0,0,1.27-.73m-1.2,8.41a1.93,1.93,0,0,0,1.4.59,2.07,2.07,0,0,0-.51-1.45,3.26,3.26,0,0,0-1.59-.8,3.32,3.32,0,0,0,.7,1.66m6.79,5.39a1.79,1.79,0,0,0-.3-1.32,2.89,2.89,0,0,0-1.31-.85,2.91,2.91,0,0,0,.45,1.52,1.71,1.71,0,0,0,1.16.65m-3.19-3.07a1.53,1.53,0,0,0-1.19-.14,2.57,2.57,0,0,0-1.13.88,2.65,2.65,0,0,0,1.42.07,1.6,1.6,0,0,0,.9-.81m4.9,3.6a1.85,1.85,0,0,0,0-1.4,3,3,0,0,0-1.18-1.14,3.09,3.09,0,0,0,.17,1.64,1.79,1.79,0,0,0,1.06.9m-5.61-4.76a1.9,1.9,0,0,0,0-1.42A3,3,0,0,0,24.43,45a3.12,3.12,0,0,0,.09,1.67,1.86,1.86,0,0,0,1,1m-2.19-4a2.61,2.61,0,0,0-1.42,0,2.74,2.74,0,0,0,1.1.92,1.57,1.57,0,0,0,1.2-.11,1.6,1.6,0,0,0-.88-.84m5.11,4a1.25,1.25,0,0,0-.05-1,2.39,2.39,0,0,0-1-.84A2.13,2.13,0,0,0,27.6,47a1.46,1.46,0,0,0,.86.65M27.12,48a1.81,1.81,0,0,0-.06-1.35,2.94,2.94,0,0,0-1.15-1.08,2.92,2.92,0,0,0,.18,1.58,1.76,1.76,0,0,0,1,.85m-.65,3.26a1.73,1.73,0,0,0,1.36,0,1.8,1.8,0,0,0-.89-1,3,3,0,0,0-1.61-.15,3,3,0,0,0,1.14,1.18m9,.76a1.27,1.27,0,0,0,0-1,2.26,2.26,0,0,0-.88-.81,2.1,2.1,0,0,0,.13,1.18,1.34,1.34,0,0,0,.79.64m-1.18.31a1.56,1.56,0,0,0,0-1.22,2.65,2.65,0,0,0-1.07-1,2.57,2.57,0,0,0,.16,1.42,1.64,1.64,0,0,0,1,.78m-1.55.09A1.85,1.85,0,0,0,32.65,51a3,3,0,0,0-1.18-1.13,3.18,3.18,0,0,0,.18,1.65,1.84,1.84,0,0,0,1.06.89m0-.11a1.85,1.85,0,0,0,0-1.4,3,3,0,0,0-1.18-1.13,3.09,3.09,0,0,0,.17,1.64,1.79,1.79,0,0,0,1.06.89M49.08,14.43a2,2,0,0,0,1.37-.64,3.42,3.42,0,0,0,.64-1.68,3.26,3.26,0,0,0-1.56.86,2,2,0,0,0-.45,1.46M52,23.22a1.8,1.8,0,0,0,1.4-.11,1.84,1.84,0,0,0-1-1,3,3,0,0,0-1.66,0A3.06,3.06,0,0,0,52,23.22m-.41-7.3a1.91,1.91,0,0,0,.55-1.36A3.2,3.2,0,0,0,51.48,13a3.17,3.17,0,0,0-.54,1.65,1.9,1.9,0,0,0,.63,1.32m-1.73,2.89a1.85,1.85,0,0,0,1.26.65,1.9,1.9,0,0,0-.37-1.39,3.07,3.07,0,0,0-1.43-.86,3.13,3.13,0,0,0,.54,1.6m1.46,1.45A3,3,0,0,0,49.66,20a3,3,0,0,0,1.08,1.29,1.81,1.81,0,0,0,1.4.13,1.85,1.85,0,0,0-.84-1.15m-.19-2.83A2,2,0,0,0,51.05,16a3.14,3.14,0,0,0-1.21-1.16A3.16,3.16,0,0,0,50,16.51a1.87,1.87,0,0,0,1.1.92m-.93-5.62a3.08,3.08,0,0,0,.26-1.6,2.94,2.94,0,0,0-1.22,1,1.84,1.84,0,0,0-.13,1.37,1.77,1.77,0,0,0,1.09-.82m7,4.06a1.84,1.84,0,0,0,0-1.43,3.08,3.08,0,0,0-1.12-1.24,3.16,3.16,0,0,0,.06,1.69,1.82,1.82,0,0,0,1,1m-3.54,4.74A1.78,1.78,0,0,0,54.89,20a3.08,3.08,0,0,0,.61-1.54,3,3,0,0,0-1.45.78,1.82,1.82,0,0,0-.42,1.34m.25,44.06c-.21-2.19-1-9.55-1-11.37.42-.74.26-.67.77-1,.33-.21.66-.44,1-.67,1.24.06,2.51.15,3.82.09a10.79,10.79,0,0,0,2.3-.32A6.93,6.93,0,0,0,61.84,51l1-.5a4.07,4.07,0,0,1,1.81-.57c.62,0,1.41.21,2.18.12A9,9,0,0,0,71,48.67a8.94,8.94,0,0,1-4.15.87,4,4,0,0,1-1-.22,7.55,7.55,0,0,0-1.1-.32,2.09,2.09,0,0,0-.35,0l.18-.23c.42-.53.8-1.14,1.17-1.66A3.28,3.28,0,0,1,67.25,46a5.24,5.24,0,0,0,1.86-.77,5,5,0,0,1-1.92.52,2.94,2.94,0,0,0-1.88,1c-.46.55-.82,1.08-1.27,1.58-.23.25-.45.49-.69.71a5.07,5.07,0,0,0-1,.31l-1,.38a7.15,7.15,0,0,1-.94.22,12.2,12.2,0,0,1-2,.11c-.57,0-1.16-.06-1.75-.12l.45-.4c1.05-1,2-2,3-3,.49-.49,1-.93,1.44-1.33A11.41,11.41,0,0,1,63,44.12a15.14,15.14,0,0,1,7.44-2.24c1.38-.08,2.77-.11,4.16-.27a11.53,11.53,0,0,0,4-1.16,11.31,11.31,0,0,1-4,.64c-1.37,0-2.73-.1-4.12-.2l-.68-.06a7.37,7.37,0,0,0,.66-.84,11.88,11.88,0,0,1,1.38-2,4.64,4.64,0,0,1,2-1.15,5.82,5.82,0,0,0,2.27-1,5.92,5.92,0,0,1-2.34.68,4.49,4.49,0,0,0-2.42.91,11.76,11.76,0,0,0-1.66,2,5.35,5.35,0,0,1-1.35,1.3,15.63,15.63,0,0,0-2.16.06l-.38.05a13.61,13.61,0,0,0,.67-2.05c.09-.37.17-.74.25-1.1l.28-.07a4,4,0,0,0,.68-.27,4.13,4.13,0,0,0,1.07-.91c.58-.68,1-1.43,1.47-2a5,5,0,0,1,2-1,9.88,9.88,0,0,0,1.19-.42,2.18,2.18,0,0,0,.94-.81,3.06,3.06,0,0,1-2.2.86,3.82,3.82,0,0,0-2.47.8c-.69.61-1.13,1.35-1.66,1.89a2.68,2.68,0,0,1-1.1.74,7.64,7.64,0,0,1,.6-1.86,8.1,8.1,0,0,1,2.63-3.16,10.46,10.46,0,0,0,3.17-3,10.74,10.74,0,0,1-3.45,2.58A11.45,11.45,0,0,0,68,32.31a6.54,6.54,0,0,0-1.53,1.78,9.31,9.31,0,0,0-.92,2.17L65,38.35a9.55,9.55,0,0,1-1.5,3,11.76,11.76,0,0,0-1.52.61A13.44,13.44,0,0,0,60,43.14a18.41,18.41,0,0,0-1.76,1.34L56.39,46c0-.63.07-1.26.11-1.86a7.28,7.28,0,0,1,.09-1,3.91,3.91,0,0,0,1.63-.49,6.72,6.72,0,0,0,1.5-1.19A7.93,7.93,0,0,0,60.82,40a13.58,13.58,0,0,0,.82-1.67,15.8,15.8,0,0,1-1,1.56,8.61,8.61,0,0,1-1.27,1.29,6.86,6.86,0,0,1-1.46,1,3.76,3.76,0,0,1-1.17.31c0-.09,0-.19.07-.29a8.26,8.26,0,0,1,2.12-3.53,10.45,10.45,0,0,0,2.68-3.47,10.58,10.58,0,0,1-3,3.09,11.71,11.71,0,0,0-1.7,1.49,7.19,7.19,0,0,0-1.25,2A10,10,0,0,0,55.07,44l-.3,2.17c-.08.5-.19,1-.31,1.44a14.64,14.64,0,0,1-2.07,1.48c-.08-2.23-.53-7.94-.53-8.08a15.11,15.11,0,0,1,.1-1.61c0-.37.23-.92.29-1.3a9.51,9.51,0,0,1,3.28-1.85l2.59-.76a13,13,0,0,0,1.36-.47,9.39,9.39,0,0,0,1.31-.65A8.29,8.29,0,0,0,63,32.5a14.74,14.74,0,0,0,1.52-2.39c.46-.8.9-1.59,1.41-2.33a7.67,7.67,0,0,1,1.83-2c-1.63.88-2.68,2.51-3.76,3.95A10.08,10.08,0,0,1,60.08,33a8.18,8.18,0,0,1-1.16.45,12.32,12.32,0,0,1-1.23.3L56.34,34a11.22,11.22,0,0,1,1.08-3.56A14.65,14.65,0,0,1,60.11,27a7.56,7.56,0,0,0,.73-.89l0,0a2.64,2.64,0,0,1,1.46-.81,8.64,8.64,0,0,0,1.93-.56,2.71,2.71,0,0,0,1.31-1.59,16.65,16.65,0,0,0,.54-1.92A12.5,12.5,0,0,1,65.3,23,2.91,2.91,0,0,1,64,24.2a8,8,0,0,1-1.82.38,4.35,4.35,0,0,0-1,.26s0-.07,0-.1a6,6,0,0,1,.67-2c.67-1.27,2.18-2.14,2.7-3.63a5.72,5.72,0,0,1-1.47,1.7,13.32,13.32,0,0,0-1.75,1.56,4.88,4.88,0,0,0-1.05,2.21l-.1.56a1.17,1.17,0,0,1-.16.35,5.29,5.29,0,0,1-.69.78,15.22,15.22,0,0,0-3,3.63A11.79,11.79,0,0,0,55,34.3h0a14.6,14.6,0,0,0-2.49.84,67.94,67.94,0,0,1,1.82-7.21c.78-2.37,1.67-4.72,2.44-7.13l0,0a2.51,2.51,0,0,1,1.45-.8,8.64,8.64,0,0,0,1.93-.56,2.76,2.76,0,0,0,1.31-1.6A14.67,14.67,0,0,0,62,16a13,13,0,0,1-.78,1.78,3,3,0,0,1-1.32,1.18,7.94,7.94,0,0,1-1.81.37,4.4,4.4,0,0,0-1,.27c.31-1,.58-2,.8-3.07a16.3,16.3,0,0,0,.41-4A25.92,25.92,0,0,1,55.91,20c-.39.86-.8,1.71-1.21,2.57v0a5.21,5.21,0,0,0-.8-1.15,11.29,11.29,0,0,1-1.56-1.87,4,4,0,0,1-.41-2.28,18,18,0,0,1,.61-2.46,22.09,22.09,0,0,0-1,2.39,3.64,3.64,0,0,0,.06,2.71A10.8,10.8,0,0,0,53.14,22,3.45,3.45,0,0,1,54,24q-.74,1.47-1.5,2.94c0-.05,0-.09,0-.13a14.47,14.47,0,0,0-1.12-2.06c-.41-.64-.84-1.23-1.25-1.82a7.77,7.77,0,0,1-1-1.78,8.23,8.23,0,0,1-.5-4.1,10.74,10.74,0,0,0,0-4.41A11,11,0,0,1,48.1,17a13.33,13.33,0,0,0-.39,2l-.29-.28a8.5,8.5,0,0,1-1.37-1.28,3,3,0,0,1-.51-1.7,11.67,11.67,0,0,1,.23-1.93,17.33,17.33,0,0,0-.52,1.91,2.82,2.82,0,0,0,.3,2.06,8.63,8.63,0,0,0,1.37,1.49,2.81,2.81,0,0,1,.81,1.39,7.94,7.94,0,0,0,.2,1,8.73,8.73,0,0,0,.94,2.16L50,25.61a9,9,0,0,1,1.27,3.75c-.86,1.61-1.73,3.23-2.51,4.94a29.7,29.7,0,0,0-1.52,4c-.12.41-.22.85-.32,1.29-.49-.6-1-1.16-1.51-1.71h0a7.28,7.28,0,0,1,0-3.18,20.69,20.69,0,0,0,.71-4.87,6.47,6.47,0,0,0-.19-1.31c0-.11-.05-.21-.09-.32l-.11-.3a6.46,6.46,0,0,0-.27-.6.59.59,0,0,0,0-.08,5.38,5.38,0,0,1-.23-2.06,11.61,11.61,0,0,0,0-2.58A4.6,4.6,0,0,0,44,20.25a6.28,6.28,0,0,1-1.32-2.09,5.93,5.93,0,0,0,1.09,2.26,4.83,4.83,0,0,1,.76,2.22,12.44,12.44,0,0,1-.24,2.41c0,.17,0,.34-.05.51L44,25.27a32.29,32.29,0,0,0-3.15-2.75,2,2,0,0,0-.49-1.42,3.23,3.23,0,0,0-1.58-.82A3.39,3.39,0,0,0,39.41,22a1.92,1.92,0,0,0,1.3.59,26.9,26.9,0,0,1,2.72,3.16,7.63,7.63,0,0,1,1.22,4.12,21.62,21.62,0,0,1-1,4.44,12.83,12.83,0,0,0-.31,1.57l-1-.92c-.5-.49-.94-.95-1.34-1.42a12.31,12.31,0,0,1-1.12-1.56,15.54,15.54,0,0,1-2.39-7.5c-.11-1.4-.17-2.81-.37-4.22a11.74,11.74,0,0,0-1.24-4,11.91,11.91,0,0,1,.74,4.08c.06,1.39,0,2.77-.1,4.18,0,0,0,.11,0,.16l-.34-.33a11.4,11.4,0,0,1-1.7-1.58,3.83,3.83,0,0,1-.65-2.13,16.84,16.84,0,0,1,.29-2.41,21,21,0,0,0-.65,2.39,3.54,3.54,0,0,0,.38,2.57A10.6,10.6,0,0,0,35.56,25a3.76,3.76,0,0,1,.9,1.27,17.81,17.81,0,0,0,.08,2.3c-.18-.12-.35-.25-.53-.36-.57-.37-1.15-.69-1.71-1a7.24,7.24,0,0,1-1.47-1.08A7.49,7.49,0,0,1,30.9,22.9a9.55,9.55,0,0,0-1.65-3.62A9.92,9.92,0,0,1,30.46,23,10.7,10.7,0,0,0,31,25,6.2,6.2,0,0,0,32,26.86a8.73,8.73,0,0,0,1.58,1.41l1.59,1.14a9.39,9.39,0,0,1,1.89,1.76,13.06,13.06,0,0,0,.77,1.94,14.74,14.74,0,0,0,1.16,2c.4.58.82,1.1,1.23,1.59-.7-.08-1.39-.12-2.07-.13h-.35l-.1-.1a8.29,8.29,0,0,0-.8-.77,12.81,12.81,0,0,0-1.78-1.15c-.61-.33-1.21-.61-1.8-.9a7,7,0,0,1-1.54-1,7.34,7.34,0,0,1-2.17-3.07A9.38,9.38,0,0,0,27.71,26a9.76,9.76,0,0,1,1.48,3.67,11.15,11.15,0,0,0,.63,2A6.26,6.26,0,0,0,31,33.45a8.08,8.08,0,0,0,1.69,1.31l1.68,1a10.6,10.6,0,0,1,1.06.76h-.52q-.8,0-1.5,0A10.18,10.18,0,0,1,32,36.31a11.75,11.75,0,0,1-5.35-2.78c-.81-.71-1.61-1.44-2.47-2.11a8.92,8.92,0,0,0-2.85-1.52,9.27,9.27,0,0,1,2.6,1.83c.77.73,1.47,1.54,2.2,2.34a16.49,16.49,0,0,0,2.35,2.38l.2.15-.44.17a11.16,11.16,0,0,1-2.14.9,3.67,3.67,0,0,1-2.16-.3,15.73,15.73,0,0,1-2-1.29,20.43,20.43,0,0,0,1.85,1.6,3.33,3.33,0,0,0,2.46.74,9.55,9.55,0,0,0,2.37-.77,4.42,4.42,0,0,1,1.27-.28,10.6,10.6,0,0,0,1.65.73,11.79,11.79,0,0,0,1.68.42,15.34,15.34,0,0,0,1.7.2l3.17.22a13.16,13.16,0,0,1,5.37,1.43,10,10,0,0,1,2.3,3.51c-.15,2.37-.63,5.19-.75,7.24a6.93,6.93,0,0,0-1.66-.48h0a7.67,7.67,0,0,0-.64-.75,8.72,8.72,0,0,0-1-.83A7.56,7.56,0,0,0,40.91,47a7.88,7.88,0,0,1-.95-2.2A2.33,2.33,0,0,1,40,43.61a6.31,6.31,0,0,0,.3-1.23A6.13,6.13,0,0,0,40,39.89a6.21,6.21,0,0,1,.15,2.46,4.85,4.85,0,0,1-.38,1.17,3.22,3.22,0,0,0-.27,1.3,3.19,3.19,0,0,0,.31,1.3c.18.4.35.76.51,1.14s.31.78.43,1.18l-1.09-.69a6.06,6.06,0,0,1-1.29-1,6.71,6.71,0,0,1-1.65-2.9,8.68,8.68,0,0,0-1.4-3.29,8.77,8.77,0,0,1,1,3.38,6.54,6.54,0,0,0,1.3,3.49A7.17,7.17,0,0,0,39,48.73l1.39,1.06a3,3,0,0,1,.26.22l-1-.22a14,14,0,0,1-1.49-.4,11.93,11.93,0,0,1-1.39-.57,12.26,12.26,0,0,1-4.67-4.08c-.65-.89-1.27-1.83-2-2.7a9.54,9.54,0,0,0-2.49-2.21,9.38,9.38,0,0,1,2.16,2.46c.61.91,1.11,1.89,1.64,2.87.32.61.66,1.24,1,1.85a4.89,4.89,0,0,1-1.26-.62,7.34,7.34,0,0,0-2.41-1.25c-1-.16-1.77,0-2.61-.14a3,3,0,0,1-1.95-1.51,3.21,3.21,0,0,0,.73,1.1,3.33,3.33,0,0,0,1.13.71,19.69,19.69,0,0,0,2.53.55,5.28,5.28,0,0,1,1.62,1,4.24,4.24,0,0,0-.88.43,8.71,8.71,0,0,1-1.62.92,3,3,0,0,1-1.76,0,12.44,12.44,0,0,1-1.73-.83,14.52,14.52,0,0,0,1.63,1.1,2.64,2.64,0,0,0,2,.35,8.29,8.29,0,0,0,1.82-.85,2.59,2.59,0,0,1,1.51-.36,6.06,6.06,0,0,0,.67.36,3.34,3.34,0,0,0,1.39.26,10.31,10.31,0,0,0,2.57,2.31,13.58,13.58,0,0,0,1.51.8,4.09,4.09,0,0,0-.49.18c-.57.22-1.1.48-1.63.72a6.34,6.34,0,0,1-4.84.27A8.13,8.13,0,0,0,27,51.77a8.26,8.26,0,0,1,3.31,1.07,6.36,6.36,0,0,0,3.57.86,7.37,7.37,0,0,0,1.84-.42l1.66-.58a7.41,7.41,0,0,1,2.83-.44l2,.65a7.25,7.25,0,0,1,2.69,1.15c-.08,1.35-.71,8.72-.77,10.35M53,12.09a3.34,3.34,0,0,0-.34-1.71,3.34,3.34,0,0,0-.84,1.53,2,2,0,0,0,.39,1.42A2,2,0,0,0,53,12.09m3.44,5.44a1.93,1.93,0,0,0,0-1.44,3.16,3.16,0,0,0-1.12-1.24,3.16,3.16,0,0,0,.06,1.69,1.86,1.86,0,0,0,1,1m-1.19-3.29a2,2,0,0,0,.6-1.34,3.25,3.25,0,0,0-.59-1.62,3.2,3.2,0,0,0-.59,1.62,2,2,0,0,0,.58,1.34m-2.52,5.28A1.81,1.81,0,0,0,54,18.94a3.13,3.13,0,0,0,.6-1.54,2.94,2.94,0,0,0-1.44.78,1.86,1.86,0,0,0-.43,1.34m0-5.15a1.77,1.77,0,0,0,1.09-.82,3,3,0,0,0,.26-1.6A2.94,2.94,0,0,0,52.86,13a1.84,1.84,0,0,0-.13,1.37m1.51,1.3a3.21,3.21,0,0,0-1.5.83,1.93,1.93,0,0,0-.43,1.41,1.87,1.87,0,0,0,1.31-.62,3.22,3.22,0,0,0,.62-1.62m-1.43.12a1.68,1.68,0,0,0,1.2-.56,2.9,2.9,0,0,0,.56-1.47,2.88,2.88,0,0,0-1.37.75,1.8,1.8,0,0,0-.39,1.28m5.08,15.72a1.67,1.67,0,0,0-1,.72,1.62,1.62,0,0,0,1.22.3,2.79,2.79,0,0,0,1.27-.76,2.68,2.68,0,0,0-1.46-.26M53.4,45.45a1.45,1.45,0,0,0,1,.59,1.44,1.44,0,0,0-.17-1.14,2.42,2.42,0,0,0-1.13-.77,2.43,2.43,0,0,0,.31,1.32m.36-2.08a1.87,1.87,0,0,0,.83,1.12,1.83,1.83,0,0,0,.26-1.38,3,3,0,0,0-.9-1.38,3.09,3.09,0,0,0-.19,1.64M54,33a1.5,1.5,0,0,0,1,.59,1.46,1.46,0,0,0-.18-1.14,2.41,2.41,0,0,0-1.12-.77A2.38,2.38,0,0,0,54,33m.37-2.08A1.87,1.87,0,0,0,55.22,32a1.9,1.9,0,0,0,.26-1.38,3.1,3.1,0,0,0-.9-1.38,2.94,2.94,0,0,0-.19,1.63m4.26-1a1.67,1.67,0,0,0-1,.72,1.62,1.62,0,0,0,1.22.3,2.71,2.71,0,0,0,1.27-.77,2.72,2.72,0,0,0-1.46-.25m4.48-.38a3.34,3.34,0,0,0-.49-1.75,3.45,3.45,0,0,0-.75,1.66,2.06,2.06,0,0,0,.52,1.45,2,2,0,0,0,.72-1.36m-.74-2.23A2.68,2.68,0,0,0,60.93,27a1.67,1.67,0,0,0-1,.72,1.64,1.64,0,0,0,1.22.3,2.64,2.64,0,0,0,1.27-.76m-1,3.87a3.33,3.33,0,0,0-.24-1.8,3.33,3.33,0,0,0-1,1.53,2.06,2.06,0,0,0,.3,1.51,2,2,0,0,0,.91-1.24m3.25-3.39A3.39,3.39,0,0,0,64.1,26a3.48,3.48,0,0,0-.74,1.65,2.08,2.08,0,0,0,.51,1.46,2.05,2.05,0,0,0,.73-1.37m-.84-1.83a2.68,2.68,0,0,0-1.46-.26,1.67,1.67,0,0,0-1,.72,1.64,1.64,0,0,0,1.22.3,2.72,2.72,0,0,0,1.28-.76M57.3,37.16a1.94,1.94,0,0,0-.13,1.43,1.87,1.87,0,0,0,1.14-.86,3.09,3.09,0,0,0,.25-1.68,3.09,3.09,0,0,0-1.26,1.11M56,39.93a2,2,0,0,0,.73-1.36,3.41,3.41,0,0,0-.5-1.75,3.38,3.38,0,0,0-.74,1.66A2.07,2.07,0,0,0,56,39.93m3.38-4.16a1.92,1.92,0,0,0-.35,1.4,1.86,1.86,0,0,0,1.26-.67,3.15,3.15,0,0,0,.52-1.61,3.2,3.2,0,0,0-1.43.88m-1.08-9a1.87,1.87,0,0,0,.49-1.31,3.09,3.09,0,0,0-.64-1.52,3,3,0,0,0-.48,1.58,1.85,1.85,0,0,0,.63,1.25m-1.44,1.5a1.86,1.86,0,0,0,.5-1.32,3.09,3.09,0,0,0-.64-1.51A3.11,3.11,0,0,0,56.23,27a1.86,1.86,0,0,0,.62,1.25M55,28.53a1.86,1.86,0,0,0,.62,1.25,1.83,1.83,0,0,0,.5-1.31A3.09,3.09,0,0,0,55.49,27,3.11,3.11,0,0,0,55,28.53M26.3,42.11a3.05,3.05,0,0,0-.09,1.65,1.8,1.8,0,0,0,.91,1.05,1.85,1.85,0,0,0,.16-1.39,3,3,0,0,0-1-1.31m33.61-17.4a1.88,1.88,0,0,0-.06-1.4,3.07,3.07,0,0,0-1.19-1.12,3.14,3.14,0,0,0,.18,1.64,1.79,1.79,0,0,0,1.07.88M60.35,23a1.85,1.85,0,0,0,.5-1.31,3.06,3.06,0,0,0-.65-1.52,3.11,3.11,0,0,0-.48,1.58A1.89,1.89,0,0,0,60.35,23m.7,5.55a2.68,2.68,0,0,0-1.46-.26,1.67,1.67,0,0,0-1,.72,1.64,1.64,0,0,0,1.22.3,2.7,2.7,0,0,0,1.28-.76m-1.75-8a3,3,0,0,0-1.6.17,1.81,1.81,0,0,0-.87,1.06,1.75,1.75,0,0,0,1.36-.05,3,3,0,0,0,1.11-1.18" transform="translate(0 0)"/><path class="cls-4" d="M60.51,65c-8.44.75-11.68.5-17.28-.53-11-2.26-12.73-.84-11.92-2.52,0,0,10-3.6,26.94,0a17.84,17.84,0,0,0,6.55.34.8.8,0,0,1,.6,1.37c-1.16.8-1.66,1.09-4.89,1.37" transform="translate(0 0)"/></g></svg>