<?xml version="1.0" encoding="UTF-8"?>
<svg width="48px" height="18px" viewBox="0 0 48 18" version="1.1" xmlns="http://www.w3.org/2000/svg" xmlns:xlink="http://www.w3.org/1999/xlink">
    <!-- Generator: Sketch 59 (86127) - https://sketch.com -->
    <title>Artboard Copy 18@2x</title>
    <desc>Created with Sketch.</desc>
    <g id="Artboard-Copy-18" stroke="none" stroke-width="1" fill="none" fill-rule="evenodd">
        <path d="M4.8,17.496 L4.8,3.384 L0,3.384 L0,0.312 L12.84,0.312 L12.84,3.384 L8.04,3.384 L8.04,17.496 L4.8,17.496 Z M16.5579158,4.032 C16.2859144,4.032 16.025917,3.98000052 15.7779158,3.876 C15.5299145,3.77199948 15.3139167,3.62800092 15.1299158,3.444 C14.9459148,3.25999908 14.8019163,3.0480012 14.6979158,2.808 C14.5939152,2.5679988 14.5419158,2.30400144 14.5419158,2.016 C14.5419158,1.72799856 14.5939152,1.4640012 14.6979158,1.224 C14.8019163,0.9839988 14.9459148,0.77200092 15.1299158,0.588 C15.3139167,0.40399908 15.5299145,0.26000052 15.7779158,0.156 C16.025917,0.05199948 16.2859144,0 16.5579158,0 C17.1179186,0 17.5979138,0.19599804 17.9979158,0.588 C18.3979178,0.98000196 18.5979158,1.4559972 18.5979158,2.016 C18.5979158,2.5760028 18.3979178,3.05199804 17.9979158,3.444 C17.5979138,3.83600196 17.1179186,4.032 16.5579158,4.032 Z M14.9979158,17.496 L14.9979158,5.736 L18.1419158,5.736 L18.1419158,17.496 L14.9979158,17.496 Z M21.7878315,0.312 L24.9318315,0.312 L24.9318315,5.472 L24.7398315,7.152 L24.9318315,7.152 C25.219833,6.65599752 25.6678285,6.23200176 26.2758315,5.88 C26.8838346,5.52799824 27.6358271,5.352 28.5318315,5.352 C29.2838353,5.352 29.9998281,5.50799844 30.6798315,5.82 C31.3598349,6.13200156 31.9598289,6.56399724 32.4798315,7.116 C32.9998341,7.66800276 33.41183,8.32799616 33.7158315,9.096 C34.0198331,9.86400384 34.1718315,10.7039954 34.1718315,11.616 C34.1718315,12.5280046 34.0198331,13.3679962 33.7158315,14.136 C33.41183,14.9040038 32.9998341,15.5639972 32.4798315,16.116 C31.9598289,16.6680028 31.3598349,17.0999984 30.6798315,17.412 C29.9998281,17.7240016 29.2838353,17.88 28.5318315,17.88 C27.6358271,17.88 26.8838346,17.7040018 26.2758315,17.352 C25.6678285,16.9999982 25.219833,16.5760025 24.9318315,16.08 L24.7398315,16.08 L24.7398315,17.496 L21.7878315,17.496 L21.7878315,0.312 Z M27.8838315,14.976 C28.2998336,14.976 28.6958297,14.8960008 29.0718315,14.736 C29.4478334,14.5759992 29.7798301,14.3520014 30.0678315,14.064 C30.355833,13.7759986 30.5878307,13.4240021 30.7638315,13.008 C30.9398324,12.5919979 31.0278315,12.1280026 31.0278315,11.616 C31.0278315,11.1039974 30.9398324,10.6400021 30.7638315,10.224 C30.5878307,9.80799792 30.355833,9.45600144 30.0678315,9.168 C29.7798301,8.87999856 29.4478334,8.6560008 29.0718315,8.496 C28.6958297,8.3359992 28.2998336,8.256 27.8838315,8.256 C27.4678295,8.256 27.0718334,8.33199924 26.6958315,8.484 C26.3198297,8.63600076 25.987833,8.85599856 25.6998315,9.144 C25.4118301,9.43200144 25.1798324,9.78399792 25.0038315,10.2 C24.8278307,10.6160021 24.7398315,11.0879974 24.7398315,11.616 C24.7398315,12.1440026 24.8278307,12.6159979 25.0038315,13.032 C25.1798324,13.4480021 25.4118301,13.7999986 25.6998315,14.088 C25.987833,14.3760014 26.3198297,14.5959992 26.6958315,14.748 C27.0718334,14.9000008 27.4678295,14.976 27.8838315,14.976 Z M44.9697473,15.96 L44.7777473,15.96 C44.4097455,16.552003 43.9137504,17.0199983 43.2897473,17.364 C42.6657442,17.7080017 41.9537513,17.88 41.1537473,17.88 C39.6657399,17.88 38.5577509,17.4240046 37.8297473,16.512 C37.1017437,15.5999954 36.7377473,14.3840076 36.7377473,12.864 L36.7377473,5.736 L39.8817473,5.736 L39.8817473,12.48 C39.8817473,13.3280042 40.0697454,13.955998 40.4457473,14.364 C40.8217492,14.772002 41.3697437,14.976 42.0897473,14.976 C42.5217495,14.976 42.9017457,14.8840009 43.2297473,14.7 C43.5577489,14.5159991 43.8377461,14.2680016 44.0697473,13.956 C44.3017485,13.6439984 44.4777467,13.2760021 44.5977473,12.852 C44.7177479,12.4279979 44.7777473,11.9760024 44.7777473,11.496 L44.7777473,5.736 L47.9217473,5.736 L47.9217473,17.496 L44.9697473,17.496 L44.9697473,15.96 Z" id="Tibu" fill="#292984" fill-rule="nonzero"></path>
    </g>
</svg>